<svg width="18" height="18" viewBox="0 0 18 18" fill="none" xmlns="http://www.w3.org/2000/svg">
<g id="map / globe" clip-path="url(#clip0_5_638)">
<path id="Vector" d="M16.5 9C16.5 13.1421 13.1421 16.5 9 16.5M16.5 9C16.5 4.85786 13.1421 1.5 9 1.5M16.5 9C16.5 7.34315 13.1421 6 9 6C4.85786 6 1.5 7.34315 1.5 9M16.5 9C16.5 10.6569 13.1421 12 9 12C4.85786 12 1.5 10.6569 1.5 9M9 16.5C4.85786 16.5 1.5 13.1421 1.5 9M9 16.5C10.6569 16.5 12 13.1421 12 9C12 4.85786 10.6569 1.5 9 1.5M9 16.5C7.34315 16.5 6 13.1421 6 9C6 4.85786 7.34315 1.5 9 1.5M1.5 9C1.5 4.85786 4.85786 1.5 9 1.5" stroke="#1B1B1B" stroke-width="1.125" stroke-linecap="round" stroke-linejoin="round"/>
</g>
<defs>
<clipPath id="clip0_5_638">
<rect width="18" height="18" fill="white"/>
</clipPath>
</defs>
</svg>
