<svg width="168" height="60" viewBox="0 0 168 60" fill="none" xmlns="http://www.w3.org/2000/svg">
<g clip-path="url(#clip0_72_782)">
<path d="M21.5645 18.6673C21.5645 20.4973 21.0478 21.8783 20.0193 22.8054C18.986 23.7325 17.3491 24.196 15.099 24.196H1.60791V19.2612H14.1574C14.6644 19.2612 15.1038 19.1695 15.4611 18.9812C15.8184 18.7977 16.0019 18.4017 16.0019 17.7982V17.3443C16.0019 16.8566 15.8764 16.4848 15.6205 16.2337C15.3645 15.9778 14.8913 15.8522 14.196 15.8522H8.21824C5.92467 15.8522 4.30709 15.3839 3.37034 14.4423C2.4336 13.5056 1.9604 12.1535 1.9604 10.3911V5.4901C1.9604 3.52004 2.50603 2.11009 3.59246 1.26509C4.67889 0.424915 6.29164 0 8.42104 0H20.2752V4.93481H9.25639C8.51279 4.93481 8.03959 5.02656 7.83196 5.21487C7.62433 5.39836 7.5181 5.8619 7.5181 6.6055V9.28054C7.5181 9.81168 7.62433 10.2125 7.83196 10.478C8.03959 10.7436 8.6335 10.8788 9.60405 10.8788H15.3066C17.3684 10.8788 18.928 11.323 19.9807 12.2163C21.0333 13.1096 21.5645 14.5051 21.5645 16.4075V18.6673Z" fill="white"/>
<path d="M47.1173 24.196H41.5548V18.0782H30.7774V24.196H25.2148V5.84259C25.2148 1.95075 27.3587 0 31.6465 0H40.7919C42.9696 0 44.5678 0.44423 45.5915 1.33752C46.6103 2.23081 47.1221 3.74215 47.1221 5.87639V24.196H47.1173ZM41.5548 13.1386V6.88073C41.5548 6.18542 41.4099 5.68807 41.1202 5.38387C40.8305 5.0845 40.3476 4.92999 39.6765 4.92999H32.6895C31.9942 4.92999 31.5017 5.07967 31.2119 5.38387C30.9222 5.68324 30.7774 6.20473 30.7774 6.94833V13.1386H41.5548Z" fill="white"/>
<path d="M73.4717 24.196H67.943V20.8595C67.943 19.9083 67.6822 19.2081 67.1607 18.7542C66.6393 18.3003 65.9391 18.0782 65.0555 18.0782H57.0255V24.196H51.463V0H65.717C68.0347 0 69.6861 0.44423 70.6711 1.33752C71.6562 2.23081 72.1487 3.7325 72.1487 5.83776V10.5311C72.1487 11.6659 72.0038 12.6074 71.7141 13.3462C71.4244 14.0898 70.8739 14.6789 70.0627 15.1183C70.7339 15.2825 71.352 15.6108 71.9217 16.1082C72.4915 16.6055 72.8874 17.1898 73.1192 17.8658C73.351 18.5369 73.4669 19.1647 73.4669 19.7441V24.196H73.4717ZM66.6248 10.6712V7.16079C66.6248 6.28199 66.4751 5.68807 66.1709 5.3887C65.8715 5.08933 65.2535 4.93481 64.3264 4.93481H57.0255V13.1386H64.2926C65.0555 13.1386 65.6349 13.0034 66.0309 12.7378C66.4268 12.4722 66.6199 11.7817 66.6199 10.6712H66.6248Z" fill="white"/>
<path d="M95.6832 24.196H83.0275C78.7397 24.196 76.5958 22.2501 76.5958 18.3535V5.91019C76.5958 3.82424 77.1366 2.31772 78.2134 1.39063C79.2902 0.463544 80.8981 0 83.0275 0H95.6832V4.93481H84.2105C83.5828 4.93481 83.0854 5.04104 82.7136 5.24867C82.3418 5.4563 82.1583 6.05022 82.1583 7.02076V11.1589H95.6108V16.0937H82.1583V17.2429C82.1583 17.9623 82.3177 18.479 82.646 18.788C82.9696 19.1019 83.4814 19.2564 84.1767 19.2564H95.6832V24.1912V24.196Z" fill="white"/>
<path d="M121.202 24.196H115.64V8.02994C115.64 7.01111 115.432 6.33028 115.012 5.9971C114.597 5.6591 113.863 5.49493 112.82 5.49493H104.891V24.2009H99.3289V0H104.858V1.1492C106.108 0.893288 107.779 0.637373 109.865 0.386287C111.951 0.130372 113.873 0.00482858 115.635 0.00482858C117.489 0.00482858 118.88 0.560116 119.807 1.67552C120.734 2.78609 121.198 4.39884 121.198 6.50893V24.2057L121.202 24.196Z" fill="white"/>
<path d="M145.471 4.93481H137.441V24.196H131.845V4.93481H123.848V0H145.471V4.93481Z" fill="white"/>
<path d="M166.644 24.196H153.988C149.701 24.196 147.557 22.2501 147.557 18.3535V5.91019C147.557 3.82424 148.098 2.31772 149.174 1.39063C150.251 0.463544 151.859 0 153.988 0H166.644V4.93481H155.171C154.544 4.93481 154.046 5.04104 153.675 5.24867C153.303 5.4563 153.119 6.05022 153.119 7.02076V11.1589H166.572V16.0937H153.119V17.2429C153.119 17.9623 153.279 18.479 153.607 18.788C153.93 19.1019 154.442 19.2564 155.138 19.2564H166.644V24.1912V24.196Z" fill="white"/>
<path d="M28.5031 52.3757C28.5031 54.2202 28.1941 55.6881 27.5712 56.7793C26.9483 57.8706 26.0406 58.677 24.8479 59.2081C23.6504 59.7392 22.1004 60 20.198 60H8.39691C2.80058 60 0 57.4746 0 52.4191V36.1226C0 33.4283 0.704973 31.4679 2.11009 30.2462C3.51521 29.0198 5.61082 28.4066 8.39691 28.4066H24.1912V34.8527H9.89377C8.89425 34.8527 8.20859 35.0362 7.82714 35.3983C7.45051 35.7605 7.26219 36.4896 7.26219 37.576V50.9222C7.26219 51.8928 7.45051 52.5736 7.82714 52.9647C8.20377 53.3559 8.90874 53.5538 9.93723 53.5538H18.6045C20.3573 53.5538 21.2361 52.6895 21.2361 50.9657V49.9227H15.4273V43.4766H28.4983V52.3708L28.5031 52.3757Z" fill="white"/>
<path d="M61.183 60H53.9208V52.0135H39.8503V60H32.5881V36.0357C32.5881 30.9512 35.3887 28.4114 40.985 28.4114H52.9213C55.7653 28.4114 57.8513 28.9957 59.184 30.1594C60.5167 31.323 61.183 33.2979 61.183 36.084V60.0048V60ZM53.9208 45.5674V37.3974C53.9208 36.4896 53.7325 35.8378 53.3559 35.4467C52.9792 35.0555 52.3515 34.8576 51.4727 34.8576H42.3515C41.4438 34.8576 40.8016 35.0555 40.4201 35.4467C40.0435 35.8378 39.8552 36.5186 39.8552 37.4891V45.5674H53.9257H53.9208Z" fill="white"/>
<path d="M107.89 60H100.628V38.9377C100.628 37.5471 100.43 36.6297 100.039 36.1903C99.6427 35.7509 98.7977 35.5336 97.4988 35.5336H91.0092V60H83.747V38.9377C83.747 37.5471 83.5442 36.6297 83.1338 36.1903C82.7234 35.7509 81.8687 35.5336 80.5698 35.5336H74.1236V60H66.8615V28.4114H74.0802V30.0918C75.2004 29.7296 76.8325 29.3578 78.9812 28.9812C81.1299 28.6046 82.8827 28.4162 84.2444 28.4162C85.8764 28.4162 87.127 28.5852 87.9913 28.9136C88.8557 29.2468 89.5268 29.7924 90.0097 30.5456C91.6128 29.9421 93.4573 29.4351 95.5481 29.0246C97.634 28.6142 99.5123 28.4114 101.178 28.4114C102.661 28.4114 103.931 28.7204 104.993 29.3433C106.05 29.9662 106.799 30.9416 107.238 32.2694C107.677 33.6021 107.895 35.1425 107.895 36.9001V60.0048L107.89 60Z" fill="white"/>
<path d="M138.025 60H121.502C115.905 60 113.105 57.4602 113.105 52.3757V36.1275C113.105 33.4042 113.81 31.4389 115.215 30.227C116.62 29.015 118.716 28.4114 121.502 28.4114H138.025V34.8576H123.047C122.231 34.8576 121.579 34.9928 121.096 35.268C120.613 35.5384 120.372 36.311 120.372 37.5809V42.9841H137.938V49.4302H120.372V50.9271C120.372 51.8638 120.584 52.5398 121.009 52.9454C121.434 53.3559 122.1 53.5587 123.008 53.5587H138.03V60.0048L138.025 60Z" fill="white"/>
<path d="M167.938 52.7861C167.938 55.1762 167.267 56.9773 165.92 58.1893C164.573 59.4013 162.434 60.0048 159.498 60.0048H141.888V53.5587H158.271C158.938 53.5587 159.503 53.438 159.976 53.1965C160.444 52.9551 160.681 52.4384 160.681 51.6514V51.0623C160.681 50.4249 160.512 49.9421 160.183 49.6089C159.85 49.2757 159.232 49.1115 158.324 49.1115H150.517C147.523 49.1115 145.408 48.4983 144.186 47.2719C142.965 46.0454 142.347 44.283 142.347 41.9846V35.5867C142.347 33.013 143.056 31.1782 144.481 30.0724C145.905 28.9667 148.006 28.4162 150.792 28.4162H166.267V34.8624H151.878C150.908 34.8624 150.29 34.9831 150.019 35.2245C149.749 35.466 149.609 36.0744 149.609 37.0401V40.536C149.609 41.2313 149.744 41.7528 150.019 42.1004C150.29 42.4481 151.062 42.6219 152.332 42.6219H159.778C162.472 42.6219 164.505 43.2062 165.881 44.3699C167.257 45.5336 167.948 47.3588 167.948 49.8407V52.7909L167.938 52.7861Z" fill="white"/>
</g>
<defs>
<clipPath id="clip0_72_782">
<rect width="167.938" height="60" fill="white"/>
</clipPath>
</defs>
</svg>
