<svg width="140" height="50" viewBox="0 0 140 50" fill="none" xmlns="http://www.w3.org/2000/svg">
<g id="Layer_1" clip-path="url(#clip0_5_750)">
<path id="Vector" d="M17.9703 15.5561C17.9703 17.0811 17.5397 18.2319 16.6827 19.0045C15.8216 19.7771 14.4575 20.1634 12.5824 20.1634H1.33984V16.051H11.7978C12.2203 16.051 12.5864 15.9746 12.8842 15.8176C13.1819 15.6647 13.3349 15.3348 13.3349 14.8318V14.4536C13.3349 14.0472 13.2302 13.7373 13.017 13.5281C12.8037 13.3148 12.4094 13.2102 11.8299 13.2102H6.84845C4.93714 13.2102 3.58916 12.8199 2.80854 12.0352C2.02792 11.2546 1.63358 10.128 1.63358 8.65926V4.57508C1.63358 2.93337 2.08827 1.75841 2.99363 1.05424C3.89899 0.354096 5.24295 0 7.01746 0H16.8959V4.11234H7.71358C7.09391 4.11234 6.69957 4.1888 6.52655 4.34573C6.35352 4.49863 6.265 4.88492 6.265 5.50459V7.73378C6.265 8.1764 6.35352 8.51038 6.52655 8.73169C6.69957 8.953 7.1945 9.06567 8.00329 9.06567H12.7554C14.4736 9.06567 15.7733 9.43586 16.6505 10.1803C17.5277 10.9247 17.9703 12.0876 17.9703 13.6729V15.5561Z" fill="#2661D7"/>
<path id="Vector_2" d="M39.2645 20.1634H34.6291V15.0652H25.6479V20.1634H21.0125V4.86882C21.0125 1.62562 22.799 0 26.3722 0H33.9933C35.808 0 37.1399 0.370191 37.993 1.1146C38.842 1.85901 39.2685 3.11846 39.2685 4.89699V20.1634H39.2645ZM34.6291 10.9488V5.73394C34.6291 5.15451 34.5083 4.74006 34.2669 4.48656C34.0255 4.23708 33.6231 4.10832 33.0638 4.10832H27.2413C26.6619 4.10832 26.2515 4.23306 26.01 4.48656C25.7686 4.73604 25.6479 5.17061 25.6479 5.79028V10.9488H34.6291Z" fill="#2661D7"/>
<path id="Vector_3" d="M61.2266 20.1634H56.6193V17.3829C56.6193 16.5902 56.402 16.0068 55.9674 15.6285C55.5329 15.2503 54.9494 15.0652 54.213 15.0652H47.5214V20.1634H42.886V0H54.7643C56.6957 0 58.0719 0.370191 58.8927 1.1146C59.7136 1.85901 60.124 3.11041 60.124 4.8648V8.77595C60.124 9.72155 60.0033 10.5062 59.7619 11.1218C59.5205 11.7415 59.0617 12.2324 58.3857 12.5986C58.9451 12.7354 59.4601 13.009 59.9349 13.4235C60.4097 13.8379 60.7397 14.3248 60.9328 14.8881C61.126 15.4474 61.2225 15.9705 61.2225 16.4534V20.1634H61.2266ZM55.5208 8.89264V5.96733C55.5208 5.23499 55.396 4.74006 55.1425 4.49058C54.8931 4.24111 54.378 4.11234 53.6054 4.11234H47.5214V10.9488H53.5773C54.213 10.9488 54.6959 10.8361 55.0259 10.6148C55.3558 10.3935 55.5168 9.81812 55.5168 8.89264H55.5208Z" fill="#2661D7"/>
<path id="Vector_4" d="M79.736 20.1634H69.1896C65.6164 20.1634 63.8298 18.5418 63.8298 15.2945V4.92516C63.8298 3.18687 64.2805 1.93143 65.1778 1.15886C66.0751 0.386287 67.4151 0 69.1896 0H79.736V4.11234H70.1754C69.6523 4.11234 69.2378 4.20087 68.928 4.37389C68.6182 4.54692 68.4653 5.04185 68.4653 5.85064V9.29905H79.6756V13.4114H68.4653V14.3691C68.4653 14.9686 68.5981 15.3992 68.8717 15.6567C69.1413 15.9182 69.5678 16.047 70.1472 16.047H79.736V20.1593V20.1634Z" fill="#2661D7"/>
<path id="Vector_5" d="M101.002 20.1634H96.3664V6.69161C96.3664 5.84259 96.1934 5.27523 95.8433 4.99759C95.4972 4.71592 94.8856 4.57911 94.0165 4.57911H87.4094V20.1674H82.7739V0H87.3812V0.957669C88.4234 0.744407 89.8156 0.531144 91.5539 0.321906C93.2922 0.108643 94.8937 0.00402382 96.3624 0.00402382C97.9075 0.00402382 99.0664 0.466763 99.8389 1.39627C100.612 2.32174 100.998 3.6657 100.998 5.42411V20.1714L101.002 20.1634Z" fill="#2661D7"/>
<path id="Vector_6" d="M121.226 4.11234H114.534V20.1634H109.87V4.11234H103.207V0H121.226V4.11234Z" fill="#2661D7"/>
<path id="Vector_7" d="M138.87 20.1634H128.324C124.75 20.1634 122.964 18.5418 122.964 15.2945V4.92516C122.964 3.18687 123.415 1.93143 124.312 1.15886C125.209 0.386287 126.549 0 128.324 0H138.87V4.11234H129.309C128.786 4.11234 128.372 4.20087 128.062 4.37389C127.752 4.54692 127.599 5.04185 127.599 5.85064V9.29905H138.81V13.4114H127.599V14.3691C127.599 14.9686 127.732 15.3992 128.006 15.6567C128.275 15.9182 128.702 16.047 129.281 16.047H138.87V20.1593V20.1634Z" fill="#2661D7"/>
<path id="Vector_8" d="M23.7526 43.6464C23.7526 45.1835 23.4951 46.4067 22.976 47.3161C22.4569 48.2255 21.7005 48.8975 20.7066 49.3401C19.7087 49.7827 18.417 50 16.8316 50H6.99742C2.33382 50 0 47.8955 0 43.6826V30.1022C0 27.8569 0.587478 26.2232 1.75841 25.2052C2.92934 24.1831 4.67568 23.6721 6.99742 23.6721H20.1593V29.0439H8.24481C7.41188 29.0439 6.8405 29.1968 6.52261 29.4986C6.20876 29.8004 6.05183 30.408 6.05183 31.3134V42.4352C6.05183 43.244 6.20876 43.8113 6.52261 44.1373C6.83647 44.4632 7.42395 44.6282 8.28102 44.6282H15.5038C16.9644 44.6282 17.6968 43.9079 17.6968 42.4714V41.6023H12.8561V36.2305H23.7486V43.6423L23.7526 43.6464Z" fill="#2661D7"/>
<path id="Vector_9" d="M50.9858 50H44.934V43.3446H33.2086V50H27.1567V30.0298C27.1567 25.7927 29.4906 23.6761 34.1542 23.6761H44.101C46.4711 23.6761 48.2094 24.163 49.3199 25.1328C50.4305 26.1025 50.9858 27.7483 50.9858 30.07V50.004V50ZM44.934 37.9728V31.1645C44.934 30.408 44.777 29.8648 44.4632 29.5389C44.1493 29.2129 43.6262 29.0479 42.8939 29.0479H35.2929C34.5364 29.0479 34.0013 29.2129 33.6834 29.5389C33.3695 29.8648 33.2126 30.4321 33.2126 31.2409V37.9728H44.938H44.934Z" fill="#2661D7"/>
<path id="Vector_10" d="M89.9082 50H83.8563V32.4481C83.8563 31.2892 83.6914 30.5247 83.3654 30.1585C83.0355 29.7924 82.3313 29.6113 81.2489 29.6113H75.8409V50H69.7891V32.4481C69.7891 31.2892 69.6201 30.5247 69.278 30.1585C68.936 29.7924 68.2238 29.6113 67.1414 29.6113H61.7696V50H55.7178V23.6761H61.7334V25.0764C62.6669 24.7747 64.027 24.4648 65.8176 24.151C67.6082 23.8371 69.0688 23.6802 70.2035 23.6802C71.5636 23.6802 72.6057 23.821 73.326 24.0946C74.0463 24.3723 74.6056 24.827 75.008 25.4547C76.3439 24.9517 77.881 24.5292 79.6233 24.1872C81.3616 23.8451 82.9268 23.6761 84.3151 23.6761C85.5504 23.6761 86.6086 23.9337 87.4939 24.4527C88.3751 24.9718 88.9988 25.7846 89.365 26.8912C89.7311 28.0018 89.9122 29.2854 89.9122 30.75V50.004L89.9082 50Z" fill="#2661D7"/>
<path id="Vector_11" d="M115.021 50H101.251C96.5877 50 94.2539 47.8835 94.2539 43.6464V30.1062C94.2539 27.8368 94.8414 26.1991 96.0123 25.1891C97.1832 24.1791 98.9296 23.6761 101.251 23.6761H115.021V29.0479H102.539C101.859 29.0479 101.316 29.1606 100.913 29.39C100.511 29.6153 100.31 30.2591 100.31 31.3174V35.82H114.948V41.1918H100.31V42.4392C100.31 43.2198 100.487 43.7832 100.841 44.1212C101.195 44.4632 101.75 44.6322 102.507 44.6322H115.025V50.004L115.021 50Z" fill="#2661D7"/>
<path id="Vector_12" d="M139.948 43.9884C139.948 45.9802 139.389 47.4811 138.267 48.4911C137.144 49.501 135.361 50.004 132.915 50.004H118.24V44.6322H131.893C132.448 44.6322 132.919 44.5316 133.313 44.3304C133.704 44.1292 133.901 43.6987 133.901 43.0428V42.5519C133.901 42.0208 133.76 41.6184 133.486 41.3407C133.209 41.0631 132.694 40.9263 131.937 40.9263H125.431C122.936 40.9263 121.173 40.4152 120.155 39.3932C119.137 38.3711 118.622 36.9025 118.622 34.9871V29.6555C118.622 27.5109 119.214 25.9818 120.401 25.0603C121.588 24.1389 123.338 23.6802 125.66 23.6802H138.556V29.052H126.565C125.756 29.052 125.241 29.1526 125.016 29.3538C124.791 29.555 124.674 30.062 124.674 30.8667V33.78C124.674 34.3594 124.787 34.794 125.016 35.0837C125.241 35.3734 125.885 35.5183 126.944 35.5183H133.148C135.394 35.5183 137.088 36.0051 138.234 36.9749C139.381 37.9446 139.957 39.4656 139.957 41.5339V43.9924L139.948 43.9884Z" fill="#2661D7"/>
</g>
<defs>
<clipPath id="clip0_5_750">
<rect width="139.948" height="50" fill="white"/>
</clipPath>
</defs>
</svg>
