<svg width="157" height="60" viewBox="0 0 157 60" fill="none" xmlns="http://www.w3.org/2000/svg">
<g id="Frame" clip-path="url(#clip0_5_765)">
<g id="Group">
<g id="Layer_1">
<g id="Group 1000001850">
<path id="Vector" d="M0.0132676 10.5602C0.202893 14.4638 2.74649 17.9882 6.39513 19.3875C8.29792 20.1199 10.2334 20.048 12.2277 20.0414C14.3986 20.0283 16.576 20.0218 18.7469 20.0087C19.1066 20.0087 19.4662 20.0087 19.8258 20.0087C19.9501 20.0087 20.2051 20.061 20.3228 20.0087C20.4274 19.9629 20.5386 19.7275 20.6105 19.6295C20.8916 19.2371 21.1728 18.8513 21.454 18.459C22.0294 17.6678 22.6048 16.8701 23.1802 16.0789C24.1022 14.8038 23.8014 13.738 24.076 12.1818C24.161 11.6979 24.1611 10.7956 24.1741 10.3051C24.2134 10.6386 23.8995 13.6399 23.8995 13.9799C23.9126 14.9346 24.0237 13.6138 24.0368 14.5684C24.076 17.7071 24.2395 20.5187 24.2787 23.6574C24.3245 27.4368 24.233 31.2162 24.2787 34.9956C24.318 38.2847 24.2395 41.5737 24.2787 44.8561C24.2984 46.4451 20.787 48.0536 20.8655 49.6425C20.8655 49.6622 26.927 49.9564 25.6977 49.9564C25.75 48.1648 26.26 46.1508 27.2212 44.6404C27.5743 44.0846 27.9732 43.5615 28.359 43.0318C29.1567 41.9202 29.974 40.8021 30.7652 39.6905C31.9095 38.0754 33.08 36.4799 34.2308 34.8779C36.4998 31.7262 38.7687 28.5811 41.0377 25.4294C42.9666 22.7485 44.9021 20.0676 46.8311 17.3867C47.2038 16.8701 47.5765 16.3535 47.9492 15.837C49.6231 13.4961 50.2378 10.5275 49.5839 7.71578C48.8908 4.74063 46.818 2.20357 44.0455 0.92197C42.5678 0.241936 41.0115 0 39.4095 0C36.8267 0.0065388 34.2504 0.0196164 31.6676 0.0261552C27.6789 0.0392328 23.6968 0.0523104 19.7081 0.065388C16.7853 0.0719268 13.8624 0.0850044 10.9331 0.0915431C9.99147 0.0915431 9.06296 0.0915431 8.13445 0.268091C4.99583 0.850044 2.26915 2.98169 0.92216 5.88492C0.248664 7.33653 -0.065198 8.95815 0.0132676 10.5602Z" fill="url(#paint0_linear_5_765)"/>
<path id="Vector_2" d="M51.0222 49.4464C50.8326 45.5428 48.289 42.0184 44.6403 40.6191C43.0449 40.0044 41.4232 39.9586 39.7689 39.9586H30.5623L30.5296 40.0044L28.3456 43.0384C28.0776 43.3784 27.8422 43.7119 27.6264 44.0388C27.6068 44.0585 27.5871 44.0846 27.5675 44.1042C27.5414 44.1435 27.5087 44.1958 27.476 44.2612C25.8609 46.7982 25.6713 48.8383 25.6713 49.6164L24.1608 10.3379C24.1216 12.3257 23.4939 14.3004 22.2907 15.9743L19.3025 20.0153H19.2959C19.224 20.1199 19.1456 20.2245 19.0671 20.3292C17.9228 21.9443 16.7524 23.5397 15.6015 25.1417C13.3326 28.2934 11.0636 31.4386 8.79464 34.5903C6.8657 37.2712 4.93021 39.9521 3.00127 42.633C2.62856 43.1496 2.25584 43.6661 1.88313 44.1827C0.209201 46.5236 -0.405446 49.4922 0.248433 52.3039C0.941546 55.279 3.01435 57.8161 5.7868 59.0977C7.25802 59.7777 8.81426 60.0197 10.4163 60.0131C12.9991 60.0066 15.5754 59.9935 18.1582 59.987C22.1469 59.9739 26.129 59.9608 30.1177 59.9477C33.0405 59.9412 35.9633 59.9281 38.8927 59.9216C39.8343 59.9216 41.966 59.9216 42.8945 59.745C46.0396 59.1565 48.7663 57.0314 50.1133 54.1282C50.7868 52.6701 51.1007 51.055 51.0222 49.453V49.4464Z" fill="#FF00A6"/>
<path id="Vector_3" style="mix-blend-mode:multiply" d="M27.6067 44.0584C25.4162 47.112 25.1154 51.1333 26.8286 54.4812C28.5417 57.8291 31.9811 59.928 35.7279 59.9149L41.8089 59.8757C46.9157 59.4245 50.9175 55.122 50.9044 49.8844C50.9044 49.5771 50.8913 49.2698 50.8586 48.9625C50.3813 43.8687 46.0984 39.8866 40.9 39.8997L30.5688 39.9455L27.6067 44.0518V44.0584Z" fill="url(#paint1_linear_5_765)"/>
<path id="Vector_4" style="mix-blend-mode:multiply" d="M27.6067 44.0584C25.4162 47.112 25.1154 51.1334 26.8286 54.4812C28.5417 57.8291 31.9811 59.928 35.7279 59.915L39.4877 59.8888C23.7161 54.612 30.5688 39.952 30.5688 39.952L27.6067 44.0584Z" fill="url(#paint2_linear_5_765)"/>
<path id="Vector_5" style="mix-blend-mode:multiply" d="M35.7279 59.915L37.3299 59.9019C37.1338 59.8365 36.9376 59.7711 36.7414 59.7123C20.8391 54.5728 29.3787 41.639 30.4642 40.1024L27.6133 44.0584C25.4228 47.112 25.122 51.1334 26.8352 54.4812C28.5483 57.8291 31.9877 59.928 35.7345 59.915H35.7279Z" fill="url(#paint3_linear_5_765)"/>
<path id="Vector_6" style="mix-blend-mode:multiply" d="M3.93626 9.43555C3.58317 14.9347 7.72877 19.6818 13.2017 20.0349L19.3024 20.0022L22.2907 15.9613C24.4027 13.0188 24.7558 9.14784 23.2126 5.86536C21.676 2.58943 18.4851 0.405468 14.8822 0.170071L13.8164 0.0981445C8.63766 0.111222 4.28282 4.15874 3.9428 9.43555H3.93626Z" fill="url(#paint4_linear_5_765)"/>
<path id="Vector_7" style="mix-blend-mode:multiply" d="M19.3089 20.0088L22.2972 15.9678C24.4092 13.0253 24.7623 9.15438 23.2191 5.8719C21.676 2.58943 18.485 0.405468 14.8822 0.170071L13.8163 0.0981445C12.3909 0.0981445 11.0373 0.412007 9.80151 0.967804C26.6455 8.08202 20.4728 18.3022 19.3089 20.0022V20.0088Z" fill="url(#paint5_linear_5_765)"/>
<path id="Vector_8" style="mix-blend-mode:multiply" d="M22.2843 15.8566C24.4029 12.9142 24.7625 9.0432 23.2128 5.76726C21.6631 2.47825 18.4526 0.300826 14.8301 0.0654297C26.9595 5.93073 22.3562 15.4185 20.0611 18.9429L22.2843 15.8566Z" fill="url(#paint6_linear_5_765)"/>
<path id="Vector_9" style="mix-blend-mode:multiply" opacity="0.6" d="M24.1738 10.2986L25.7562 50.6364C25.7562 50.6364 25.5208 47.8967 26.6063 45.8435C27.6917 43.7903 31.6215 38.4743 31.6215 38.4743L24.1804 10.2986H24.1738Z" fill="url(#paint7_linear_5_765)"/>
<path id="Vector_10" style="mix-blend-mode:multiply" d="M25.5863 45.0458L27.803 37.0946L24.1609 10.3182L25.4817 45.3858L25.5863 45.0458Z" fill="url(#paint8_linear_5_765)"/>
</g>
<path id="Vector_11" d="M75.8632 15.9808V20.0807L67.1143 41.0898H75.8632V45.2746H62.3867V41.1748L71.1356 20.1657H62.8117V15.9808H75.8697H75.8632Z" fill="black"/>
<path id="Vector_12" d="M82.9773 15.9808V38.5789C82.9773 40.6713 83.8993 41.4233 85.364 41.4233C86.8287 41.4233 87.7507 40.6713 87.7507 38.5789V15.9808H92.1055V38.2847C92.1055 42.973 89.7646 45.6474 85.2398 45.6474C80.7149 45.6474 78.374 42.9664 78.374 38.2847V15.9808H82.9773Z" fill="black"/>
<path id="Vector_13" d="M108.001 15.9808V20.0807L99.2524 41.0898H108.001V45.2746H94.5249V41.1748L103.274 20.1657H94.9499V15.9808H108.008H108.001Z" fill="black"/>
<path id="Vector_14" d="M123.485 15.9808V20.0807L114.736 41.0898H123.485V45.2746H110.009V41.1748L118.758 20.1657H110.434V15.9808H123.492H123.485Z" fill="black"/>
<path id="Vector_15" d="M130.599 15.9808V38.5789C130.599 40.6713 131.521 41.4233 132.986 41.4233C134.451 41.4233 135.373 40.6713 135.373 38.5789V15.9808H139.728V38.2847C139.728 42.973 137.387 45.6474 132.862 45.6474C128.337 45.6474 125.996 42.9664 125.996 38.2847V15.9808H130.599Z" fill="black"/>
<path id="Vector_16" d="M147.26 15.9808V38.5789C147.26 40.6713 148.182 41.4233 149.647 41.4233C151.112 41.4233 152.034 40.6713 152.034 38.5789V15.9808H156.388V38.2847C156.388 42.973 154.048 45.6474 149.523 45.6474C144.998 45.6474 142.657 42.9664 142.657 38.2847V15.9808H147.26Z" fill="black"/>
</g>
</g>
</g>
<defs>
<linearGradient id="paint0_linear_5_765" x1="5.12661" y1="-1.85048" x2="33.2827" y2="25.6975" gradientUnits="userSpaceOnUse">
<stop stop-color="#29D7FF"/>
<stop offset="0.14" stop-color="#3CBFFF"/>
<stop offset="0.42" stop-color="#7083FF"/>
<stop offset="0.83" stop-color="#C123FF"/>
<stop offset="0.98" stop-color="#E000FF"/>
</linearGradient>
<linearGradient id="paint1_linear_5_765" x1="19.7601" y1="51.2385" x2="50.5762" y2="48.8047" gradientUnits="userSpaceOnUse">
<stop stop-color="#643C81"/>
<stop offset="0.43" stop-color="#AB95BB"/>
<stop offset="0.82" stop-color="#E7E1EB"/>
<stop offset="1" stop-color="white"/>
</linearGradient>
<linearGradient id="paint2_linear_5_765" x1="21.5321" y1="24.9913" x2="36.4602" y2="66.4995" gradientUnits="userSpaceOnUse">
<stop stop-color="#942162"/>
<stop offset="0.49" stop-color="#CC95B4"/>
<stop offset="0.84" stop-color="#F0E1EA"/>
<stop offset="1" stop-color="white"/>
</linearGradient>
<linearGradient id="paint3_linear_5_765" x1="20.6887" y1="25.292" x2="35.6168" y2="66.8069" gradientUnits="userSpaceOnUse">
<stop stop-color="#942162"/>
<stop offset="0.49" stop-color="#CC95B4"/>
<stop offset="0.84" stop-color="#F0E1EA"/>
<stop offset="1" stop-color="white"/>
</linearGradient>
<linearGradient id="paint4_linear_5_765" x1="33.0489" y1="15.2292" x2="4.40148" y2="7.49122" gradientUnits="userSpaceOnUse">
<stop stop-color="#513CFF"/>
<stop offset="0.43" stop-color="#A195FF"/>
<stop offset="0.82" stop-color="#E4E1FF"/>
<stop offset="1" stop-color="white"/>
</linearGradient>
<linearGradient id="paint5_linear_5_765" x1="42.2012" y1="41.1945" x2="9.83421" y2="-2.72662" gradientUnits="userSpaceOnUse">
<stop stop-color="#513CFF"/>
<stop offset="0.43" stop-color="#A195FF"/>
<stop offset="0.82" stop-color="#E4E1FF"/>
<stop offset="1" stop-color="white"/>
</linearGradient>
<linearGradient id="paint6_linear_5_765" x1="42.8619" y1="41.0048" x2="10.266" y2="-3.23667" gradientUnits="userSpaceOnUse">
<stop stop-color="#513CFF"/>
<stop offset="0.43" stop-color="#A195FF"/>
<stop offset="0.82" stop-color="#E4E1FF"/>
<stop offset="1" stop-color="white"/>
</linearGradient>
<linearGradient id="paint7_linear_5_765" x1="28.7641" y1="43.6334" x2="22.2514" y2="21.1007" gradientUnits="userSpaceOnUse">
<stop stop-color="white"/>
<stop offset="0.16" stop-color="#EBE1F4"/>
<stop offset="0.51" stop-color="#B995D9"/>
<stop offset="1" stop-color="#6C21B0"/>
</linearGradient>
<linearGradient id="paint8_linear_5_765" x1="28.2256" y1="39.2339" x2="22.3922" y2="19.7566" gradientUnits="userSpaceOnUse">
<stop offset="0.16" stop-color="white"/>
<stop offset="0.29" stop-color="#EBE1F4"/>
<stop offset="0.59" stop-color="#B995D9"/>
<stop offset="1" stop-color="#6C21B0"/>
</linearGradient>
<clipPath id="clip0_5_765">
<rect width="156.382" height="60" fill="white"/>
</clipPath>
</defs>
</svg>
