<svg width="131" height="50" viewBox="0 0 131 50" fill="none" xmlns="http://www.w3.org/2000/svg">
<g clip-path="url(#clip0_2_20)">
<path d="M0.0108732 8.80013C0.168894 12.0532 2.28855 14.9902 5.3291 16.1563C6.91475 16.7666 8.52766 16.7066 10.1896 16.7012C11.9987 16.6903 13.8132 16.6848 15.6223 16.6739C15.9219 16.6739 16.2216 16.6739 16.5213 16.6739C16.6249 16.6739 16.8374 16.7175 16.9355 16.6739C17.0226 16.6358 17.1153 16.4396 17.1752 16.3579C17.4095 16.031 17.6438 15.7095 17.8781 15.3825C18.3577 14.7232 18.8372 14.0584 19.3167 13.3991C20.085 12.3365 19.8343 11.4483 20.0632 10.1515C20.134 9.74826 20.134 8.99629 20.1449 8.58762C20.1776 8.86552 19.9161 11.3666 19.9161 11.65C19.927 12.4455 20.0196 11.3448 20.0305 12.1404C20.0632 14.7559 20.1994 17.099 20.2321 19.7145C20.2702 22.864 20.194 26.0135 20.2321 29.163C20.2648 31.9039 20.1994 34.6447 20.2321 37.3801C20.2485 38.7042 17.3223 40.0447 17.3877 41.3688C17.3877 41.3851 22.4389 41.6303 21.4145 41.6303C21.4581 40.1373 21.8832 38.459 22.6842 37.2003C22.9784 36.7371 23.3108 36.3012 23.6323 35.8599C24.2971 34.9335 24.9782 34.0017 25.6375 33.0754C26.5911 31.7295 27.5665 30.4 28.5255 29.065C30.4163 26.4385 32.3071 23.8176 34.1979 21.1911C35.8053 18.9571 37.4182 16.723 39.0257 14.4889C39.3363 14.0584 39.6469 13.6279 39.9575 13.1975C41.3524 11.2467 41.8646 8.77289 41.3197 6.42982C40.7421 3.95052 39.0148 1.83631 36.7044 0.768309C35.473 0.201613 34.1761 0 32.8411 0C30.6887 0.005449 28.5418 0.016347 26.3895 0.021796C23.0656 0.032694 19.7471 0.043592 16.4233 0.05449C13.9876 0.059939 11.5519 0.070837 9.1107 0.076286C8.32604 0.076286 7.55229 0.076286 6.77853 0.223409C4.16301 0.70837 1.89078 2.48474 0.768284 4.9041C0.207037 6.11377 -0.0545148 7.46513 0.0108732 8.80013Z" fill="url(#paint0_linear_2_20)"/>
<path d="M42.5185 41.2053C42.3605 37.9523 40.2408 35.0153 37.2003 33.8492C35.8707 33.337 34.5194 33.2988 33.1408 33.2988H25.4686L25.4413 33.337L23.6214 35.8653C23.398 36.1486 23.2018 36.4265 23.022 36.699C23.0056 36.7153 22.9893 36.7371 22.9729 36.7535C22.9511 36.7862 22.9239 36.8298 22.8967 36.8843C21.5508 38.9985 21.3927 40.6986 21.3927 41.347L20.134 8.61487C20.1013 10.2714 19.5782 11.917 18.5756 13.3119L16.0854 16.6794H16.08C16.02 16.7666 15.9546 16.8538 15.8892 16.9409C14.9357 18.2868 13.9603 19.6164 13.0013 20.9514C11.1105 23.5778 9.21967 26.1988 7.32887 28.8252C5.72141 31.0593 4.10851 33.2934 2.50106 35.5275C2.19046 35.9579 1.87987 36.3884 1.56928 36.8189C0.174334 38.7696 -0.337872 41.2435 0.207028 43.5865C0.784622 46.0658 2.51195 48.18 4.82233 49.248C6.04835 49.8147 7.34521 50.0163 8.68022 50.0109C10.8326 50.0055 12.9795 49.9946 15.1318 49.9891C18.4557 49.9782 21.7742 49.9673 25.0981 49.9564C27.5338 49.951 29.9695 49.9401 32.4106 49.9346C33.1953 49.9346 34.9716 49.9346 35.7454 49.7875C38.3664 49.2971 40.6386 47.5262 41.7611 45.1068C42.3223 43.8917 42.5839 42.5458 42.5185 41.2108V41.2053Z" fill="#FF00A6"/>
<path style="mix-blend-mode:multiply" d="M23.0057 36.7153C21.1803 39.26 20.9296 42.6112 22.3572 45.401C23.7849 48.1909 26.651 49.9401 29.7733 49.9292L34.8409 49.8965C39.0966 49.5205 42.4313 45.935 42.4204 41.5704C42.4204 41.3143 42.4095 41.0582 42.3823 40.8021C41.9845 36.5573 38.4154 33.2389 34.0835 33.2498L25.4741 33.2879L23.0057 36.7099V36.7153Z" fill="url(#paint1_linear_2_20)"/>
<path style="mix-blend-mode:multiply" d="M23.0057 36.7153C21.1803 39.26 20.9296 42.6112 22.3572 45.401C23.7849 48.1909 26.651 49.9401 29.7733 49.9292L32.9065 49.9074C19.7635 45.51 25.4741 33.2934 25.4741 33.2934L23.0057 36.7153Z" fill="url(#paint2_linear_2_20)"/>
<path style="mix-blend-mode:multiply" d="M29.7732 49.9292L31.1082 49.9183C30.9448 49.8638 30.7813 49.8093 30.6178 49.7602C17.3659 45.4773 24.4823 34.6992 25.3868 33.4187L23.011 36.7153C21.1856 39.26 20.935 42.6112 22.3626 45.401C23.7902 48.1909 26.6564 49.9401 29.7787 49.9292H29.7732Z" fill="url(#paint3_linear_2_20)"/>
<path style="mix-blend-mode:multiply" d="M3.2803 7.86289C2.98606 12.4455 6.44072 16.4015 11.0015 16.6957L16.0854 16.6685L18.5756 13.301C20.3357 10.8489 20.6299 7.62314 19.3439 4.88774C18.0634 2.15779 15.4043 0.337829 12.4019 0.141665L11.5137 0.0817261C7.19813 0.0926241 3.5691 3.46555 3.28575 7.86289H3.2803Z" fill="url(#paint4_linear_2_20)"/>
<path style="mix-blend-mode:multiply" d="M16.0909 16.6739L18.5811 13.3064C20.3411 10.8544 20.6353 7.62859 19.3494 4.89319C18.0634 2.15779 15.4043 0.337829 12.4019 0.141665L11.5137 0.0817261C10.3258 0.0817261 9.19789 0.343278 8.16803 0.806443C22.2046 6.73495 17.0608 15.2517 16.0909 16.6685V16.6739Z" fill="url(#paint5_linear_2_20)"/>
<path style="mix-blend-mode:multiply" d="M18.5703 13.2138C20.3357 10.7618 20.6354 7.53598 19.344 4.80603C18.0526 2.06518 15.3771 0.250668 12.3584 0.0545044C22.4663 4.94226 18.6302 12.8487 16.7176 15.7858L18.5703 13.2138Z" fill="url(#paint6_linear_2_20)"/>
<path style="mix-blend-mode:multiply" opacity="0.6" d="M20.1449 8.58218L21.4636 42.197C21.4636 42.197 21.2674 39.9139 22.1719 38.2029C23.0765 36.4919 26.3513 32.0619 26.3513 32.0619L20.1503 8.58218H20.1449Z" fill="url(#paint7_linear_2_20)"/>
<path style="mix-blend-mode:multiply" d="M21.322 37.5381L23.1692 30.9122L20.1341 8.59851L21.2348 37.8215L21.322 37.5381Z" fill="url(#paint8_linear_2_20)"/>
<path d="M63.2193 13.3174V16.7339L55.9285 34.2415H63.2193V37.7289H51.9889V34.3123L59.2796 16.8047H52.3431V13.3174H63.2247H63.2193Z" fill="black"/>
<path d="M69.1477 13.3174V32.1491C69.1477 33.8928 69.916 34.5194 71.1366 34.5194C72.3572 34.5194 73.1255 33.8928 73.1255 32.1491V13.3174H76.7545V31.9039C76.7545 35.8108 74.8038 38.0394 71.0331 38.0394C67.2624 38.0394 65.3116 35.8054 65.3116 31.9039V13.3174H69.1477Z" fill="black"/>
<path d="M90.0011 13.3174V16.7339L82.7103 34.2415H90.0011V37.7289H78.7707V34.3123L86.0615 16.8047H79.1249V13.3174H90.0065H90.0011Z" fill="black"/>
<path d="M102.904 13.3174V16.7339L95.6136 34.2415H102.904V37.7289H91.674V34.3123L98.9647 16.8047H92.0281V13.3174H102.91H102.904Z" fill="black"/>
<path d="M108.833 13.3174V32.1491C108.833 33.8928 109.601 34.5194 110.822 34.5194C112.042 34.5194 112.811 33.8928 112.811 32.1491V13.3174H116.44V31.9039C116.44 35.8108 114.489 38.0394 110.718 38.0394C106.947 38.0394 104.997 35.8054 104.997 31.9039V13.3174H108.833Z" fill="black"/>
<path d="M122.717 13.3174V32.1491C122.717 33.8928 123.485 34.5194 124.706 34.5194C125.926 34.5194 126.695 33.8928 126.695 32.1491V13.3174H130.324V31.9039C130.324 35.8108 128.373 38.0394 124.602 38.0394C120.832 38.0394 118.881 35.8054 118.881 31.9039V13.3174H122.717Z" fill="black"/>
</g>
<defs>
<linearGradient id="paint0_linear_2_20" x1="4.27199" y1="-1.54207" x2="27.7354" y2="21.4146" gradientUnits="userSpaceOnUse">
<stop stop-color="#29D7FF"/>
<stop offset="0.14" stop-color="#3CBFFF"/>
<stop offset="0.42" stop-color="#7083FF"/>
<stop offset="0.83" stop-color="#C123FF"/>
<stop offset="0.98" stop-color="#E000FF"/>
</linearGradient>
<linearGradient id="paint1_linear_2_20" x1="16.4668" y1="42.6988" x2="42.1469" y2="40.6706" gradientUnits="userSpaceOnUse">
<stop stop-color="#643C81"/>
<stop offset="0.43" stop-color="#AB95BB"/>
<stop offset="0.82" stop-color="#E7E1EB"/>
<stop offset="1" stop-color="white"/>
</linearGradient>
<linearGradient id="paint2_linear_2_20" x1="17.9435" y1="20.8261" x2="30.3836" y2="55.4163" gradientUnits="userSpaceOnUse">
<stop stop-color="#942162"/>
<stop offset="0.49" stop-color="#CC95B4"/>
<stop offset="0.84" stop-color="#F0E1EA"/>
<stop offset="1" stop-color="white"/>
</linearGradient>
<linearGradient id="paint3_linear_2_20" x1="17.2405" y1="21.0767" x2="29.6806" y2="55.6724" gradientUnits="userSpaceOnUse">
<stop stop-color="#942162"/>
<stop offset="0.49" stop-color="#CC95B4"/>
<stop offset="0.84" stop-color="#F0E1EA"/>
<stop offset="1" stop-color="white"/>
</linearGradient>
<linearGradient id="paint4_linear_2_20" x1="27.5408" y1="12.691" x2="3.66798" y2="6.24262" gradientUnits="userSpaceOnUse">
<stop stop-color="#513CFF"/>
<stop offset="0.43" stop-color="#A195FF"/>
<stop offset="0.82" stop-color="#E4E1FF"/>
<stop offset="1" stop-color="white"/>
</linearGradient>
<linearGradient id="paint5_linear_2_20" x1="35.1678" y1="34.3287" x2="8.19528" y2="-2.27224" gradientUnits="userSpaceOnUse">
<stop stop-color="#513CFF"/>
<stop offset="0.43" stop-color="#A195FF"/>
<stop offset="0.82" stop-color="#E4E1FF"/>
<stop offset="1" stop-color="white"/>
</linearGradient>
<linearGradient id="paint6_linear_2_20" x1="35.7182" y1="34.1707" x2="8.555" y2="-2.69724" gradientUnits="userSpaceOnUse">
<stop stop-color="#513CFF"/>
<stop offset="0.43" stop-color="#A195FF"/>
<stop offset="0.82" stop-color="#E4E1FF"/>
<stop offset="1" stop-color="white"/>
</linearGradient>
<linearGradient id="paint7_linear_2_20" x1="23.9701" y1="36.3612" x2="18.5429" y2="17.5839" gradientUnits="userSpaceOnUse">
<stop stop-color="white"/>
<stop offset="0.16" stop-color="#EBE1F4"/>
<stop offset="0.51" stop-color="#B995D9"/>
<stop offset="1" stop-color="#6C21B0"/>
</linearGradient>
<linearGradient id="paint8_linear_2_20" x1="23.5213" y1="32.6949" x2="18.6602" y2="16.4638" gradientUnits="userSpaceOnUse">
<stop offset="0.16" stop-color="white"/>
<stop offset="0.29" stop-color="#EBE1F4"/>
<stop offset="0.59" stop-color="#B995D9"/>
<stop offset="1" stop-color="#6C21B0"/>
</linearGradient>
<clipPath id="clip0_2_20">
<rect width="130.318" height="50" fill="white"/>
</clipPath>
</defs>
</svg>
