<?xml version="1.0" standalone="no"?>
<!DOCTYPE svg PUBLIC "-//W3C//DTD SVG 20010904//EN"
 "http://www.w3.org/TR/2001/REC-SVG-20010904/DTD/svg10.dtd">
<svg version="1.0" xmlns="http://www.w3.org/2000/svg"
 width="2048.000000pt" height="2048.000000pt" viewBox="0 0 2048.000000 2048.000000"
 preserveAspectRatio="xMidYMid meet">

<g transform="translate(0.000000,2048.000000) scale(0.100000,-0.100000)"
fill="#000000" stroke="none">
<path d="M12431 17733 c-965 -3 -1055 -4 -1066 -20 -7 -9 -17 -13 -24 -9 -8 5
-10 0 -7 -19 3 -15 2 -25 -1 -22 -6 7 -63 -20 -63 -29 0 -3 5 -2 12 2 7 4 8 3
4 -4 -4 -7 -14 -12 -22 -12 -8 0 -13 -4 -10 -9 3 -5 -3 -11 -14 -14 -11 -3
-20 -10 -20 -17 0 -6 6 -8 13 -4 7 4 8 3 4 -2 -5 -5 -16 -9 -25 -9 -9 0 -21
-10 -27 -22 -5 -13 -15 -23 -21 -23 -7 0 -15 -7 -18 -16 -5 -12 -3 -14 7 -8 7
5 4 1 -6 -8 -11 -10 -23 -16 -27 -13 -5 3 -11 1 -15 -5 -3 -5 0 -10 7 -10 7
-1 2 -7 -12 -15 -14 -8 -22 -14 -18 -15 12 0 -25 -40 -37 -40 -6 0 -23 -13
-38 -28 -28 -29 -36 -49 -15 -36 6 4 8 3 5 -4 -4 -5 -17 -8 -29 -4 -17 4 -20
2 -15 -12 4 -10 3 -15 -3 -11 -6 3 -10 -1 -10 -9 0 -14 -11 -20 -31 -18 -3 1
-6 -6 -6 -13 0 -12 3 -12 16 -2 12 10 13 9 7 -1 -4 -7 -19 -17 -33 -23 -14 -5
-21 -14 -17 -21 4 -7 3 -8 -5 -4 -16 10 -89 -63 -94 -93 -2 -14 -10 -27 -17
-29 -8 -3 -10 0 -6 9 4 8 1 6 -7 -3 -8 -10 -18 -14 -22 -10 -5 4 -5 -1 -2 -10
3 -10 2 -20 -3 -23 -6 -4 -10 0 -10 7 0 10 -3 9 -9 -2 -6 -8 -8 -17 -5 -21 2
-4 -8 -10 -22 -13 -22 -6 -24 -9 -12 -23 9 -12 9 -15 1 -9 -8 4 -23 -3 -37
-17 -13 -13 -32 -27 -41 -31 -10 -4 -15 -12 -11 -22 3 -8 2 -12 -4 -9 -6 3
-10 1 -10 -5 0 -6 -4 -9 -8 -6 -5 3 -19 -9 -32 -26 -12 -17 -18 -28 -11 -24 7
5 9 1 5 -8 -3 -9 -10 -14 -14 -11 -5 3 -11 -4 -15 -15 -3 -11 -11 -20 -16 -20
-6 0 -7 6 -4 13 4 6 0 4 -8 -5 -8 -10 -18 -14 -22 -10 -5 4 -5 1 -1 -6 10 -16
-11 -42 -29 -36 -7 3 -23 -9 -36 -27 -13 -18 -18 -29 -11 -25 8 5 10 2 6 -8
-3 -9 -15 -16 -25 -16 -10 0 -19 -4 -19 -9 0 -12 -54 -67 -74 -74 -9 -4 -16
-14 -16 -22 0 -10 -5 -13 -12 -9 -8 5 -7 0 2 -11 10 -12 10 -16 2 -11 -15 9
-45 -12 -36 -25 3 -5 -3 -6 -13 -2 -16 6 -16 5 -4 -10 12 -15 12 -17 -3 -11
-9 3 -16 1 -16 -6 0 -6 -5 -8 -12 -4 -8 5 -9 2 -5 -10 4 -9 3 -15 -1 -12 -4 2
-16 -3 -27 -11 -15 -12 -16 -14 -3 -10 12 4 15 2 12 -8 -3 -8 -9 -14 -12 -13
-26 3 -34 -3 -23 -16 9 -11 9 -16 0 -22 -8 -4 -9 -3 -5 4 10 17 -19 15 -33 -2
-9 -11 -9 -15 1 -20 9 -4 9 -5 -2 -5 -31 2 -42 -1 -38 -12 4 -13 -41 -69 -56
-69 -21 0 -56 -53 -52 -76 3 -13 0 -24 -6 -24 -5 0 -8 7 -4 15 7 19 -8 20 -23
1 -9 -11 -9 -15 1 -19 7 -2 -2 -7 -20 -11 -27 -6 -31 -10 -21 -22 9 -11 8 -14
-5 -14 -9 0 -19 -1 -23 -2 -14 -2 -31 -32 -26 -45 3 -7 3 -13 0 -13 -3 0 -13
24 -23 53 -24 75 -135 305 -195 406 -89 148 -217 311 -343 436 -67 66 -132
129 -146 140 -230 179 -333 246 -544 350 -307 151 -646 241 -926 245 -114 2
-128 0 -134 -15 -6 -17 10 -40 18 -26 4 6 1 11 -6 11 -8 0 -5 5 5 11 14 8 22
8 30 -1 9 -8 7 -9 -7 -4 -13 5 -17 4 -13 -3 4 -6 0 -16 -8 -23 -7 -6 -11 -19
-8 -28 3 -9 3 -14 -1 -10 -4 3 -8 12 -10 20 -3 22 -17 39 -27 32 -6 -3 -5 -11
3 -21 6 -8 13 -25 15 -36 2 -16 1 -18 -6 -8 -5 8 -16 11 -24 8 -8 -3 -21 0
-28 6 -10 9 -10 7 1 -6 16 -22 22 -67 9 -67 -6 0 -7 -5 -4 -10 4 -6 11 -7 17
-4 7 4 8 2 4 -5 -4 -6 -12 -9 -17 -6 -5 4 -10 1 -10 -4 -1 -6 -2 -15 -3 -20 0
-5 -5 -13 -10 -18 -5 -4 -6 -3 -3 3 10 17 -19 39 -29 23 -4 -7 -3 -9 3 -6 5 3
10 0 10 -8 0 -11 -5 -11 -19 -4 -15 8 -17 14 -8 24 8 10 8 15 -1 21 -7 4 -9 3
-5 -4 3 -6 2 -14 -4 -17 -8 -5 -8 -11 0 -20 12 -14 -11 -41 -24 -27 -4 4 -6 0
-4 -8 2 -8 -2 -14 -9 -15 -7 0 -17 -5 -24 -12 -9 -9 -8 -11 2 -10 8 2 19 6 24
9 6 4 17 -2 24 -14 10 -16 10 -18 0 -12 -9 5 -10 2 -6 -9 3 -9 2 -19 -4 -22
-5 -4 -7 -10 -4 -15 3 -5 1 -11 -4 -14 -5 -4 -8 2 -6 11 2 10 4 18 5 18 1 0 3
10 4 23 2 12 1 22 -1 22 -7 0 -28 -64 -27 -82 1 -9 -1 -17 -5 -16 -23 2 -31
-6 -31 -30 0 -15 6 -34 13 -42 10 -12 9 -12 -5 -1 -23 17 -23 67 0 80 9 6 14
11 9 11 -4 0 0 11 9 25 9 13 14 30 11 37 -3 7 -6 4 -6 -7 -1 -17 -3 -18 -12
-5 -8 12 -9 10 -4 -8 5 -16 3 -22 -7 -20 -8 2 -12 -4 -10 -16 2 -12 -1 -16 -9
-10 -8 4 -10 3 -5 -4 4 -7 3 -12 -2 -12 -11 0 -3 -61 12 -80 10 -13 9 -13 -8
0 -18 14 -19 13 -13 -3 4 -11 3 -16 -3 -12 -6 3 -10 2 -10 -4 0 -5 6 -12 13
-15 6 -3 3 -4 -8 -3 -11 1 -19 -3 -18 -10 2 -7 -3 -10 -11 -7 -11 4 -13 -3
-10 -32 3 -36 -5 -42 -11 -7 -1 10 -8 17 -14 15 -7 -1 -4 8 6 22 10 13 21 22
25 20 10 -7 38 52 35 73 -2 18 -16 30 -18 16 0 -5 -7 -15 -15 -24 -8 -9 -14
-20 -12 -25 6 -23 -14 -52 -33 -49 -17 3 -19 1 -9 -10 8 -9 8 -15 0 -20 -6 -3
-8 -10 -5 -15 3 -5 75 -50 159 -101 124 -75 155 -98 159 -118 3 -15 9 -37 13
-51 6 -22 5 -23 -8 -13 -8 7 -18 10 -21 6 -4 -3 -7 -1 -7 5 0 7 5 12 11 12 12
0 3 39 -13 55 -5 6 -5 -1 1 -16 10 -28 -1 -50 -23 -45 -6 2 -7 1 -3 -2 4 -2 3
-10 -4 -18 -6 -8 -16 -11 -21 -8 -6 4 -5 -3 1 -15 11 -20 7 -25 -19 -23 -3 0
-6 -8 -6 -18 0 -10 5 -18 10 -17 6 1 10 -4 11 -10 0 -7 3 -13 8 -13 4 0 10 0
13 0 4 0 0 8 -7 17 -8 10 -9 14 -2 10 8 -5 11 -1 8 12 -3 15 1 19 16 16 12 -3
17 0 13 7 -5 7 -2 8 7 3 11 -7 12 -6 3 6 -9 11 -8 17 4 28 14 13 15 12 10 -7
-4 -13 -2 -22 5 -22 6 0 2 -6 -8 -14 -11 -8 -16 -19 -12 -30 4 -10 3 -15 -3
-11 -6 3 -10 13 -10 22 0 9 -3 13 -7 9 -13 -12 -10 -30 7 -44 13 -10 12 -11
-4 -5 -15 5 -17 3 -11 -8 4 -8 5 -11 0 -7 -4 4 -15 2 -23 -5 -9 -6 -13 -7 -10
-2 4 6 -2 16 -12 23 -13 7 -21 8 -25 2 -4 -6 -3 -9 2 -8 4 2 8 -1 8 -7 0 -5
-3 -9 -7 -8 -5 2 -7 -3 -5 -10 1 -6 -4 -11 -12 -9 -12 3 -12 0 -2 -12 8 -10 9
-16 1 -21 -5 -3 -10 0 -10 7 0 9 -3 9 -10 -2 -5 -8 -7 -23 -4 -34 4 -12 2 -16
-4 -12 -13 8 -38 -32 -33 -53 1 -7 -2 -10 -9 -6 -6 3 -10 3 -9 -2 4 -21 -2
-34 -13 -27 -7 4 -8 3 -4 -5 4 -6 12 -9 17 -6 5 4 9 2 9 -3 0 -16 -13 -22 -25
-12 -9 7 -11 0 -11 -28 1 -25 6 -36 14 -34 8 1 11 -2 7 -9 -10 -15 -36 11 -38
39 0 11 -5 19 -9 16 -4 -3 -5 -11 -1 -19 6 -17 -15 -48 -27 -40 -4 2 -15 -4
-24 -14 -13 -14 -14 -21 -5 -27 7 -4 10 -3 6 3 -4 6 0 16 7 23 12 9 18 6 31
-14 10 -14 21 -24 25 -21 5 3 11 1 14 -3 7 -12 -41 -9 -51 2 -4 5 -2 6 5 2 17
-10 15 -1 -3 14 -12 10 -13 8 -9 -12 3 -12 7 -30 8 -38 4 -20 -13 -42 -27 -33
-6 4 -3 9 8 13 18 6 18 7 -2 12 -17 5 -21 2 -18 -13 2 -11 6 -23 9 -27 3 -5
-1 -9 -9 -9 -8 0 -11 5 -8 11 3 6 3 8 -2 4 -4 -4 -15 -2 -23 5 -12 9 -11 5 2
-15 14 -21 15 -31 6 -47 -6 -12 -7 -21 -3 -21 4 0 2 -5 -5 -12 -8 -8 -6 -18 9
-39 12 -18 16 -30 9 -34 -6 -4 -10 -3 -9 2 4 15 -13 43 -22 37 -6 -3 -16 0
-24 6 -15 12 -20 4 -16 -22 0 -5 -4 -8 -10 -8 -5 0 -7 -4 -4 -10 3 -5 -1 -20
-10 -33 -8 -13 -12 -27 -8 -32 5 -4 0 -5 -9 -2 -10 4 -18 3 -18 -2 0 -5 9 -11
20 -14 11 -3 18 0 17 7 -1 6 4 10 11 8 6 -1 12 2 12 8 0 5 -4 10 -10 10 -5 0
-10 5 -10 11 0 5 4 8 8 5 7 -4 10 8 14 50 1 6 10 9 22 6 18 -5 18 -7 4 -10
-10 -2 -18 -11 -18 -20 0 -12 3 -13 12 -4 7 7 16 12 21 12 5 0 -2 -10 -17 -21
-18 -14 -24 -25 -18 -31 7 -7 2 -18 -14 -33 -14 -13 -24 -25 -23 -27 1 -2 -1
-13 -5 -26 -7 -21 -9 -22 -20 -6 -11 14 -16 15 -32 5 -14 -9 -14 -11 -2 -7 23
7 29 -3 16 -28 -7 -11 -11 -25 -10 -29 1 -5 -3 -5 -9 -1 -9 5 -10 2 -6 -9 3
-9 3 -16 -1 -14 -7 2 -13 -8 -11 -18 1 -3 3 -18 4 -35 1 -16 3 -32 4 -35 0 -3
11 -1 24 5 18 9 20 9 7 -2 -17 -14 -19 -27 -7 -45 4 -6 2 -15 -4 -19 -7 -4 -9
-3 -6 3 10 15 -29 43 -42 30 -6 -6 -11 -7 -11 -3 0 5 -7 3 -15 -4 -22 -18 -19
-30 8 -30 17 0 19 -2 7 -9 -8 -6 -17 -8 -21 -6 -3 3 -15 -5 -25 -17 -11 -12
-13 -18 -6 -14 16 10 15 -5 -2 -30 -13 -18 -13 -21 0 -21 8 0 12 2 9 5 -8 8
26 63 36 57 5 -4 3 -15 -6 -28 -8 -12 -15 -28 -15 -37 1 -8 7 -1 15 15 7 17
14 27 15 23 7 -23 5 -34 -6 -48 -7 -8 -13 -18 -13 -22 -1 -5 -1 -11 -2 -15 0
-5 -4 1 -8 11 -8 20 -37 30 -46 16 -3 -5 4 -7 15 -5 13 2 20 -1 20 -11 0 -8
-4 -12 -10 -9 -6 4 -7 -1 -4 -12 5 -17 5 -17 -9 -1 -13 16 -15 16 -25 -7 -6
-14 -17 -25 -23 -25 -8 0 -8 4 0 14 8 10 9 16 1 21 -6 4 -10 3 -9 -2 1 -4 0
-11 -1 -15 -3 -8 -6 -36 -9 -62 0 -8 -7 -16 -13 -19 -7 -2 -2 -2 10 0 15 2 21
0 17 -7 -3 -5 -13 -10 -21 -10 -8 0 -14 -6 -14 -12 0 -9 -4 -8 -10 2 -6 9 -10
10 -10 3 0 -6 5 -15 10 -18 12 -7 4 -25 -11 -25 -6 0 -7 5 -3 12 5 7 3 8 -6 3
-10 -6 -10 -11 3 -20 9 -7 14 -15 10 -18 -3 -4 -12 -2 -19 4 -10 8 -12 2 -9
-32 5 -45 15 -66 15 -31 0 14 6 22 18 23 10 0 12 3 5 6 -7 2 -13 9 -13 14 0 6
4 8 9 5 4 -3 8 3 7 14 -1 19 18 29 20 10 1 -5 2 -15 3 -21 0 -6 8 -8 17 -5 9
3 12 2 9 -5 -4 -6 -13 -8 -21 -5 -17 6 -18 -6 -3 -21 7 -7 3 -9 -15 -6 -15 3
-26 1 -26 -6 0 -5 6 -9 13 -7 6 1 9 1 5 -1 -4 -2 -6 -10 -4 -16 1 -7 1 -9 -1
-4 -7 12 -24 8 -21 -5 3 -14 -3 -18 -24 -18 -9 0 -8 4 2 10 8 5 10 10 3 10 -6
0 -9 10 -7 23 5 22 5 22 -6 -1 -6 -15 -15 -21 -22 -16 -7 4 -10 4 -6 -1 13
-14 -11 -45 -30 -39 -10 4 -13 3 -6 -3 15 -11 14 -45 -2 -39 -9 3 -11 -4 -8
-27 2 -19 -3 -41 -14 -57 -9 -14 -20 -32 -24 -40 -6 -13 -7 -13 -7 1 -1 9 6
22 14 29 8 7 12 17 9 22 -7 10 -19 2 -19 -13 0 -5 -4 -8 -10 -6 -5 1 -9 6 -7
11 2 5 -4 4 -12 -3 -16 -14 -12 -36 5 -26 5 4 9 1 9 -4 0 -6 -4 -11 -10 -11
-5 0 -10 -9 -10 -21 0 -13 -4 -18 -12 -13 -7 4 -4 -3 7 -17 11 -13 13 -19 6
-12 -15 13 -44 6 -35 -8 3 -5 11 -6 17 -2 9 5 9 3 1 -8 -6 -8 -10 -22 -9 -31
3 -16 1 -16 -21 -2 -13 9 -22 20 -19 24 3 5 1 11 -3 14 -5 3 -8 -7 -7 -22 1
-15 -4 -37 -11 -49 -7 -12 -16 -36 -19 -54 -5 -28 -4 -31 10 -19 8 7 15 10 15
7 0 -2 -6 -10 -14 -16 -12 -10 -17 -8 -26 10 -7 12 -8 19 -3 16 5 -3 9 5 9 18
0 13 -4 21 -8 19 -4 -3 -8 0 -8 7 0 7 -3 9 -6 6 -4 -4 -1 -13 6 -22 11 -14 7
-19 -13 -16 -4 0 -6 -2 -6 -6 1 -5 0 -11 -1 -15 -4 -14 -7 -28 -9 -40 -1 -9
-4 -9 -10 2 -6 8 -7 18 -4 24 3 5 1 6 -5 2 -17 -11 4 -47 23 -40 8 4 15 2 15
-4 0 -6 -11 -9 -24 -8 -18 2 -23 -1 -18 -12 3 -10 1 -13 -6 -8 -8 5 -10 2 -6
-8 3 -9 11 -13 18 -9 6 4 5 -1 -3 -10 -11 -14 -11 -17 0 -17 11 0 11 -2 -1 -9
-8 -6 -18 -7 -22 -5 -4 3 -8 -2 -8 -11 0 -9 4 -14 9 -10 5 3 13 0 17 -6 4 -8
3 -9 -5 -5 -11 7 -20 -7 -25 -38 -1 -8 -6 -19 -11 -23 -4 -4 -5 -3 -2 3 4 7 0
15 -9 18 -8 3 -12 10 -9 16 8 14 2 13 -31 -5 -16 -8 -24 -15 -18 -15 6 0 11
-7 11 -15 0 -8 -4 -15 -9 -15 -4 0 -8 -4 -8 -9 0 -6 9 -8 20 -6 11 2 18 0 15
-5 -9 -14 -38 -4 -46 16 -7 18 -8 18 -9 -1 -2 -11 -1 -27 0 -35 3 -20 36 -61
44 -53 3 4 -2 16 -11 27 -17 20 -17 20 0 7 17 -13 18 -13 21 12 1 17 43 17 43
0 0 -9 -4 -10 -11 -3 -16 16 -30 12 -16 -5 7 -9 10 -18 6 -22 -3 -3 -6 0 -6 7
0 13 -15 5 -15 -8 0 -4 -4 -13 -8 -19 -5 -7 -5 -13 -1 -13 3 0 0 -8 -7 -17
-12 -15 -12 -16 3 -10 10 3 20 2 23 -4 4 -5 3 -9 -2 -8 -22 4 -34 -2 -27 -13
4 -7 3 -10 -1 -5 -5 4 -19 0 -33 -9 -17 -11 -22 -12 -16 -3 14 23 13 35 -7 47
-20 13 -26 3 -9 -14 7 -7 8 -19 1 -36 -5 -14 -7 -30 -3 -34 4 -5 0 -3 -9 4
-14 10 -18 10 -23 -3 -4 -11 -2 -14 7 -9 6 3 -1 -5 -17 -20 -20 -18 -24 -26
-13 -26 8 0 18 6 21 13 4 6 4 2 2 -11 -2 -12 0 -20 5 -16 5 3 9 14 9 24 0 10
5 22 12 26 6 4 8 3 5 -3 -3 -5 0 -10 8 -10 8 0 15 4 15 9 0 5 5 6 12 2 7 -4 8
-3 4 5 -4 6 -12 9 -17 6 -5 -4 -9 1 -9 10 0 9 4 14 9 10 6 -3 14 2 19 11 8 15
10 15 15 0 5 -12 3 -15 -6 -10 -8 5 -9 4 -2 -4 15 -15 50 -19 48 -5 -2 7 4 10
12 6 13 -5 13 -7 -2 -18 -10 -7 -26 -11 -37 -9 -15 3 -17 1 -8 -8 14 -14 16
-32 3 -24 -5 3 -14 -1 -21 -9 -7 -8 -9 -15 -6 -15 4 0 2 -9 -4 -21 -9 -15 -8
-24 1 -35 10 -12 10 -15 -1 -12 -13 3 -33 -49 -24 -64 3 -4 0 -8 -7 -8 -6 0
-3 -8 8 -17 10 -10 14 -15 8 -11 -7 4 -15 5 -18 1 -4 -3 -7 0 -7 8 -1 10 -5 9
-15 -5 -12 -16 -12 -22 2 -45 13 -22 13 -23 0 -8 -15 18 -34 7 -22 -13 3 -5 1
-10 -5 -10 -6 0 -8 -5 -4 -12 4 -6 3 -8 -3 -5 -5 3 -17 -5 -27 -18 -10 -13
-24 -21 -32 -18 -8 3 -12 8 -9 12 2 4 -2 8 -10 8 -8 0 -12 -4 -9 -8 2 -4 0
-10 -6 -14 -5 -3 -10 -12 -10 -18 0 -7 5 -4 11 5 9 16 12 16 33 3 12 -8 25
-12 29 -9 3 3 4 -1 3 -10 -1 -8 -6 -19 -11 -23 -4 -4 -5 -3 -1 4 3 6 2 14 -4
18 -9 5 -15 -15 -11 -38 1 -5 -3 -6 -8 -3 -10 7 -24 -22 -16 -34 6 -10 -15 -8
-32 3 -6 4 -15 3 -18 -3 -5 -8 -12 -7 -23 2 -15 11 -15 11 -6 -2 9 -13 10 -22
5 -46 0 -4 -7 -3 -14 2 -7 5 -4 1 6 -8 11 -10 24 -15 31 -11 6 4 5 -1 -3 -10
-13 -17 -26 -24 -17 -9 2 4 -6 12 -20 19 -19 9 -26 8 -36 -6 -11 -14 -11 -14
3 -4 19 15 33 5 18 -13 -7 -8 -6 -14 2 -20 7 -4 9 -3 5 4 -3 6 -2 13 3 16 10
7 9 -20 -2 -30 -10 -11 14 -35 27 -27 6 4 5 -1 -3 -10 -14 -18 -26 -24 -17 -8
3 5 -1 14 -9 21 -8 7 -13 16 -10 19 2 4 -2 8 -10 8 -8 0 -14 -3 -13 -6 0 -3
-1 -9 -2 -13 -1 -5 -3 -14 -4 -20 -1 -7 -7 -12 -14 -10 -7 1 -11 -3 -10 -10 2
-7 -2 -12 -9 -13 -6 0 -15 -4 -20 -8 -4 -5 -2 -7 6 -5 7 1 15 -2 18 -8 2 -7
-6 -10 -23 -8 -19 2 -23 -1 -16 -8 8 -8 7 -21 -4 -46 -8 -19 -12 -37 -10 -39
2 -3 7 5 11 18 6 17 9 19 16 8 6 -9 7 -4 3 15 -6 23 -4 27 7 21 12 -8 12 -6 0
8 -7 10 -9 17 -3 17 6 0 12 -6 15 -12 3 -8 9 -3 15 12 10 24 10 24 10 -8 -1
-18 -5 -35 -9 -38 -5 -3 -6 3 -2 13 5 15 4 16 -8 5 -8 -7 -14 -20 -14 -30 0
-9 -6 -16 -14 -14 -9 2 -11 -3 -6 -15 11 -31 11 -35 -9 -39 -22 -3 -37 -24
-29 -38 3 -5 1 -6 -5 -2 -7 4 -13 2 -13 -3 -1 -6 -2 -15 -3 -20 0 -5 -5 -13
-9 -18 -5 -4 -7 -2 -5 6 1 7 -3 16 -11 19 -8 3 -11 0 -7 -7 4 -6 2 -11 -3 -11
-6 0 -11 10 -12 23 -1 21 -2 19 -15 -22 -4 -11 -7 -11 -22 0 -9 7 -14 9 -10 5
4 -5 2 -16 -4 -25 -10 -13 -10 -14 2 -4 11 10 17 10 32 -3 16 -15 17 -15 13 5
-3 18 -1 20 16 11 24 -13 25 -22 2 -13 -16 6 -16 5 -4 -11 14 -17 16 -16 34 6
19 23 19 23 1 -9 -16 -29 -19 -30 -30 -15 -16 21 -17 12 -4 -22 5 -14 7 -26 4
-26 -3 0 -10 13 -15 30 -6 16 -15 28 -19 25 -5 -3 -11 1 -14 7 -4 9 -5 8 -5
-2 2 -30 -1 -40 -13 -38 -7 2 -14 -4 -14 -12 -3 -32 -6 -34 -13 -11 -3 13 -14
25 -24 27 -9 1 -15 -2 -11 -7 3 -5 10 -7 15 -4 5 4 9 -3 9 -15 0 -12 -4 -18
-10 -15 -6 4 -7 -1 -3 -11 5 -13 3 -15 -8 -9 -8 4 4 -11 26 -35 69 -73 212
-189 328 -267 117 -78 385 -215 497 -254 36 -12 68 -26 71 -32 4 -5 11 -7 17
-3 6 3 13 2 17 -3 3 -6 12 -8 20 -4 8 3 15 0 15 -7 0 -6 -4 -8 -10 -5 -5 3
-17 -3 -27 -15 -10 -11 -16 -22 -13 -23 3 -1 -2 -10 -10 -19 -8 -9 -18 -14
-21 -12 -4 2 -12 -2 -18 -9 -8 -11 186 -13 1090 -9 l1100 5 -244 -339 c-133
-187 -320 -445 -413 -574 -94 -129 -636 -881 -1204 -1670 -569 -789 -1363
-1892 -1765 -2450 -402 -558 -754 -1049 -782 -1090 -207 -308 -349 -691 -404
-1090 -19 -135 -16 -496 4 -633 85 -561 319 -1029 712 -1423 411 -412 906
-647 1505 -716 139 -16 233 -16 4370 -5 2992 8 3784 15 3980 38 442 49 906
253 1270 557 794 663 1094 1738 759 2721 -52 152 -178 408 -269 546 -365 554
-928 948 -1531 1069 -299 61 -249 59 -1769 63 -767 2 -1396 6 -1398 8 -5 5
117 177 538 760 163 226 762 1056 1330 1845 569 789 1364 1894 1769 2455 404
561 759 1058 788 1105 116 184 224 427 283 637 250 886 12 1800 -635 2448
-412 412 -891 640 -1493 710 -164 19 -420 22 -1661 18z m-4891 -49 c0 -8 -19
-13 -24 -6 -3 5 1 9 9 9 8 0 15 -2 15 -3z m-30 -38 c0 -2 -8 -10 -17 -17 -16
-13 -17 -12 -4 4 13 16 21 21 21 13z m7 -31 c0 -8 -4 -12 -9 -9 -5 3 -6 10 -3
15 9 13 12 11 12 -6z m-87 -32 c0 -5 -5 -15 -10 -23 -7 -12 -9 -10 -7 8 1 19
17 33 17 15z m40 -8 c-7 -8 -17 -15 -23 -15 -6 0 -2 7 9 15 25 19 30 19 14 0z
m-107 -129 c15 2 16 0 6 -12 -8 -10 -15 -12 -23 -4 -16 16 -30 12 -16 -5 7 -8
9 -15 5 -15 -4 0 -1 -8 6 -17 7 -10 1 -7 -14 6 -25 23 -26 26 -10 43 9 10 19
15 22 10 3 -5 14 -8 24 -6z m-103 -170 c-14 -14 -13 -29 2 -20 7 4 8 3 4 -5
-4 -6 -11 -9 -16 -6 -14 8 -8 42 7 42 10 0 10 -4 3 -11z m-84 -63 l-15 -28 1
25 c2 28 20 58 26 42 2 -6 -3 -23 -12 -39z m21 -62 c0 -11 -5 -18 -9 -15 -4 3
-5 11 -1 19 7 21 12 19 10 -4z m3613 -21 c0 -5 -2 -10 -4 -10 -3 0 -8 5 -11
10 -3 6 -1 10 4 10 6 0 11 -4 11 -10z m-3352 -247 c-9 -11 -13 -12 -19 -1 -5
7 -9 21 -9 30 0 17 1 17 20 1 15 -13 17 -20 8 -30z m3083 -16 c-10 -9 -11 -8
-5 6 3 10 9 15 12 12 3 -3 0 -11 -7 -18z m-3155 -32 c-11 -8 -14 -15 -7 -15 7
0 9 -5 5 -11 -4 -7 -9 -8 -17 0 -12 12 8 41 27 41 6 0 2 -7 -8 -15z m-26 -49
c0 -3 -4 -8 -10 -11 -5 -3 -10 -1 -10 4 0 6 5 11 10 11 6 0 10 -2 10 -4z m3
-88 c-2 -5 -10 -8 -18 -8 -9 0 -12 -8 -9 -27 5 -26 4 -27 -9 -9 -10 13 -16 15
-21 8 -4 -7 -3 -12 3 -12 5 0 8 -10 6 -21 -5 -25 -18 -42 -15 -19 5 31 -1 46
-9 25 -5 -13 -3 -31 6 -48 8 -16 12 -31 9 -35 -3 -3 -6 0 -6 7 0 7 -5 9 -10 6
-6 -4 -8 -10 -6 -14 3 -4 -1 -8 -9 -8 -13 0 -13 3 0 17 20 23 19 36 -2 19 -10
-8 -14 -9 -10 -2 4 6 3 14 -2 17 -5 4 -8 -2 -6 -11 1 -10 -1 -22 -5 -28 -10
-13 7 -58 18 -51 5 3 9 -1 9 -9 0 -13 -3 -13 -17 0 -9 8 -19 12 -23 9 -3 -3
-3 4 0 17 4 15 3 20 -5 15 -7 -4 -12 -3 -12 3 0 5 5 13 11 16 6 4 8 12 6 19
-5 12 15 46 30 49 4 1 7 10 6 20 -2 10 1 16 6 13 5 -3 14 1 21 9 7 8 9 15 5
15 -4 0 -3 6 3 13 11 13 63 17 55 5z m2884 -140 c-3 -8 -6 -5 -6 6 -1 11 2 17
5 13 3 -3 4 -12 1 -19z m-3022 -79 c2 -9 -6 -16 -17 -16 -20 -2 -20 -1 -2 13
17 12 17 13 2 8 -10 -3 -18 -2 -18 4 0 16 33 7 35 -9z m-50 -58 c3 -18 1 -20
-16 -10 -16 8 -18 13 -8 25 14 17 18 14 24 -15z m-80 -231 c10 -11 16 -20 13
-20 -3 0 -13 9 -23 20 -10 11 -16 20 -13 20 3 0 13 -9 23 -20z m-116 -263 c8
-11 6 -18 -12 -33 -22 -19 -22 -19 -5 2 14 16 15 23 6 32 -7 7 -9 12 -6 12 3
0 11 -6 17 -13z m-46 -32 c4 -8 3 -16 -1 -19 -4 -3 -9 4 -9 15 -2 23 3 25 10
4z m57 -40 c-7 -8 -17 -15 -23 -15 -6 0 -2 7 9 15 25 19 30 19 14 0z m-86 -80
c-4 -8 -7 -15 -9 -15 -2 0 -5 7 -9 15 -3 9 0 15 9 15 9 0 12 -6 9 -15z m24
-27 c-2 -7 -12 -20 -23 -30 -21 -18 -8 -26 13 -8 9 7 9 7 2 -2 -6 -7 -5 -18 1
-30 6 -11 8 -22 5 -26 -3 -3 -6 0 -6 5 0 19 -35 7 -39 -13 -3 -16 -1 -17 14
-4 15 13 15 9 -3 -26 -12 -23 -35 -53 -51 -67 -16 -13 -27 -28 -23 -32 4 -5 1
-5 -5 -1 -8 4 -13 2 -13 -6 0 -9 -3 -9 -10 2 -9 13 -14 7 -11 -12 0 -5 -4 -8
-10 -8 -5 0 -7 -5 -4 -10 4 -6 10 -8 15 -5 5 3 11 1 15 -4 3 -6 -3 -8 -15 -6
-12 2 -20 -1 -20 -10 0 -9 6 -12 18 -8 9 3 14 3 11 -1 -4 -4 -17 -9 -29 -11
-12 -2 -20 -2 -16 2 3 4 -1 15 -11 25 -14 15 -13 24 2 16 9 -6 33 37 26 47
-14 17 -8 39 16 62 24 23 43 13 23 -12 -7 -8 -9 -15 -5 -15 4 0 2 -7 -5 -15
-7 -8 -17 -12 -23 -8 -5 3 -7 1 -4 -5 8 -12 42 -9 42 4 0 5 3 14 6 19 4 6 9
23 13 38 6 24 9 27 21 17 15 -13 17 -12 19 18 1 9 6 24 11 32 13 20 13 32 1
48 -7 9 -5 12 4 10 8 -2 19 7 25 20 10 23 27 31 23 10z m-34 -10 c-3 -4 -11
-5 -19 -1 -21 7 -19 12 4 10 11 0 18 -5 15 -9z m-207 -340 c-3 -8 -6 -5 -6 6
-1 11 2 17 5 13 3 -3 4 -12 1 -19z m-32 -87 c1 -16 -2 -29 -5 -29 -19 2 -30
-3 -25 -12 4 -6 12 -7 18 -3 7 4 6 0 -2 -10 -12 -15 -9 -21 12 -18 12 2 8 -5
-12 -23 -19 -17 -19 -17 -17 1 4 25 -5 38 -15 22 -4 -7 -11 -10 -16 -6 -4 5
-1 12 7 17 7 5 15 15 16 23 1 12 33 67 38 67 0 0 1 -13 1 -29z m35 -47 c0 -8
-19 -13 -24 -6 -3 5 1 9 9 9 8 0 15 -2 15 -3z m-83 -70 c-3 -4 -2 -16 4 -28
10 -20 9 -20 -5 -2 -14 17 -13 36 1 36 4 0 3 -3 0 -6z m-141 -185 c14 -15 15
-20 4 -17 -8 2 -14 -2 -13 -8 1 -7 -6 -19 -17 -29 -15 -14 -18 -14 -16 -2 1 8
7 21 13 28 6 8 9 22 8 32 -4 22 -2 21 21 -4z m-86 -99 c0 -11 -4 -20 -9 -20
-7 0 -8 17 -2 38 4 10 11 -2 11 -18z m-3 -106 c-3 -3 -12 -4 -19 -1 -8 3 -5 6
6 6 11 1 17 -2 13 -5z m23 -18 c0 -2 -7 -7 -16 -10 -8 -3 -12 -2 -9 4 6 10 25
14 25 6z m-77 -61 c4 -8 3 -16 -1 -19 -4 -3 -9 4 -9 15 -2 23 3 25 10 4z m-27
-47 c5 4 5 3 1 -2 -12 -15 -34 -15 -34 0 0 9 4 11 12 4 7 -5 16 -6 21 -2z m19
-47 c3 -5 2 -12 -3 -15 -5 -3 -9 1 -9 9 0 17 3 19 12 6z m-52 -58 c-5 -12 -3
-14 7 -8 9 6 11 4 5 -4 -5 -9 -11 -9 -17 -3 -6 6 -7 15 -4 21 11 17 16 13 9
-6z m53 5 c5 4 1 -2 -9 -14 -9 -11 -15 -23 -12 -26 3 -2 -2 -5 -10 -5 -13 0
-13 2 0 17 12 13 12 19 2 30 -10 12 -9 12 4 2 9 -6 20 -8 25 -4z m9 -47 c3 -5
2 -12 -3 -15 -5 -3 -9 1 -9 9 0 17 3 19 12 6z m-64 -34 c-10 -9 -11 -8 -5 6 3
10 9 15 12 12 3 -3 0 -11 -7 -18z m-14 -86 c0 -11 -5 -18 -9 -15 -4 3 -5 11
-1 19 7 21 12 19 10 -4z m-27 -17 c0 -8 -5 -12 -10 -9 -6 4 -8 11 -5 16 9 14
15 11 15 -7z m-1 -40 c-7 -8 -6 -14 1 -17 6 -3 6 -5 -1 -3 -17 3 -20 33 -3 33
10 0 11 -4 3 -13z m-32 -66 c-3 -8 -6 -5 -6 6 -1 11 2 17 5 13 3 -3 4 -12 1
-19z m39 -10 c4 -7 3 -8 -4 -4 -7 4 -12 2 -12 -5 0 -7 -3 -10 -6 -6 -6 5 3 27
11 27 2 0 7 -5 11 -12z m-123 -178 c-3 -12 -8 -19 -11 -16 -5 6 5 36 12 36 2
0 2 -9 -1 -20z m-116 -124 c-3 -7 -1 -18 4 -23 5 -5 1 -9 -10 -10 -19 -2 -22
11 -8 35 11 16 20 15 14 -2z m-72 -161 c2 -19 -3 -39 -11 -46 -10 -8 -12 -6
-9 11 4 19 1 21 -18 17 -20 -5 -19 -4 6 19 15 13 23 24 17 24 -6 0 -8 5 -5 11
10 16 18 3 20 -36z m-211 -337 c-4 -14 -2 -18 5 -14 17 11 13 0 -6 -15 -11
-10 -14 -10 -9 -1 8 14 5 15 -18 6 -9 -3 -16 -10 -16 -16 0 -5 4 -7 9 -3 5 3
13 0 17 -6 4 -8 3 -9 -4 -5 -8 5 -12 -1 -13 -16 l-2 -23 -4 23 c-2 12 -9 20
-14 16 -5 -3 -6 -11 -2 -17 4 -7 1 -7 -9 1 -9 8 -14 20 -11 29 4 10 8 11 13 3
8 -13 24 15 22 40 -1 10 0 11 4 3 3 -7 10 -13 15 -13 6 0 7 5 3 12 -5 7 -3 8
6 3 10 -6 12 -4 7 9 -4 10 -3 15 4 11 5 -4 7 -16 3 -27z m7 -57 c-6 -10 -7
-21 -3 -25 3 -4 -1 -4 -10 -1 -15 6 -15 8 0 26 21 24 26 24 13 0z"/>
<path d="M7315 16691 c-3 -5 -2 -12 3 -15 5 -3 9 1 9 9 0 17 -3 19 -12 6z"/>
<path d="M6836 15568 c3 -5 10 -6 15 -3 13 9 11 12 -6 12 -8 0 -12 -4 -9 -9z"/>
<path d="M6736 15468 c3 -5 10 -6 15 -3 13 9 11 12 -6 12 -8 0 -12 -4 -9 -9z"/>
<path d="M5895 13810 c3 -5 8 -10 11 -10 2 0 4 5 4 10 0 6 -5 10 -11 10 -5 0
-7 -4 -4 -10z"/>
<path d="M7403 17627 c0 -8 6 -14 14 -14 9 0 10 4 2 14 -6 7 -12 13 -14 13 -1
0 -2 -6 -2 -13z"/>
<path d="M7375 17570 c6 -30 16 -40 12 -12 -2 12 -6 24 -10 28 -3 4 -4 -4 -2
-16z"/>
<path d="M7352 17548 c2 -7 -3 -12 -11 -10 -12 3 -12 0 -1 -12 7 -9 15 -16 18
-16 3 0 2 3 -1 7 -4 3 -2 12 4 19 7 8 7 14 -1 19 -6 4 -9 1 -8 -7z"/>
<path d="M7370 17511 c0 -25 6 -27 13 -6 4 8 2 17 -3 20 -6 4 -10 -3 -10 -14z"/>
<path d="M7143 17265 c0 -8 4 -12 9 -9 5 3 6 10 3 15 -9 13 -12 11 -12 -6z"/>
<path d="M7119 17203 c-13 -16 -12 -17 4 -4 16 13 21 21 13 21 -2 0 -10 -8
-17 -17z"/>
<path d="M7069 17163 c-13 -16 -12 -17 4 -4 16 13 21 21 13 21 -2 0 -10 -8
-17 -17z"/>
<path d="M7225 16651 c-3 -5 -2 -12 3 -15 5 -3 9 1 9 9 0 17 -3 19 -12 6z"/>
<path d="M7176 16567 c3 -10 9 -15 12 -12 3 3 0 11 -7 18 -10 9 -11 8 -5 -6z"/>
<path d="M7094 16369 c-4 -7 -3 -9 4 -5 5 3 12 0 15 -6 2 -7 7 -10 11 -7 4 3
0 12 -8 18 -11 9 -16 9 -22 0z"/>
<path d="M7050 16281 c0 -6 4 -13 10 -16 6 -3 7 1 4 9 -7 18 -14 21 -14 7z"/>
<path d="M7026 16236 c2 -44 3 -46 16 -46 6 0 8 3 5 7 -4 3 -2 12 4 20 9 9 8
13 0 13 -6 0 -11 -5 -11 -12 0 -6 -3 -8 -7 -4 -5 4 0 13 9 20 15 11 15 13 -1
23 -15 9 -17 7 -15 -21z"/>
<path d="M6929 16051 c8 -5 9 -10 2 -12 -5 -2 0 -9 14 -15 19 -9 25 -9 29 2 3
8 -1 14 -9 14 -8 0 -15 5 -15 10 0 6 -8 10 -17 10 -14 0 -15 -2 -4 -9z"/>
<path d="M6888 16000 c18 -21 15 -29 -10 -24 -21 4 -21 4 2 -6 18 -8 21 -13
11 -19 -7 -5 -9 -11 -4 -14 4 -3 18 10 31 28 15 25 17 33 7 29 -9 -4 -23 0
-33 7 -14 11 -15 11 -4 -1z"/>
<path d="M6857 15925 c-4 -10 -5 -20 -2 -23 3 -3 5 1 5 9 0 12 2 12 10 -1 6
-10 4 -20 -6 -31 -12 -13 -12 -19 -3 -25 8 -5 10 -3 4 7 -5 8 -4 11 0 6 5 -4
10 -18 12 -30 2 -13 0 -17 -5 -10 -8 13 -35 13 -39 0 -6 -17 -3 -32 5 -21 4 6
15 10 24 8 10 -1 21 2 24 7 3 6 12 5 22 -3 16 -12 16 -11 1 7 -9 11 -15 28
-14 38 2 9 -2 17 -8 17 -7 0 -5 5 3 10 8 5 10 10 4 10 -6 0 -15 10 -21 22 -9
20 -10 20 -16 3z"/>
<path d="M6822 15885 c-6 -14 -16 -25 -22 -25 -5 0 -10 -5 -10 -11 0 -18 44
19 47 41 4 27 -1 25 -15 -5z"/>
<path d="M6810 15801 c0 -6 4 -13 10 -16 6 -3 7 1 4 9 -7 18 -14 21 -14 7z"/>
<path d="M6803 15753 c0 -9 4 -10 14 -2 7 6 13 12 13 14 0 1 -6 2 -13 2 -8 0
-14 -6 -14 -14z"/>
<path d="M6756 15732 c-3 -5 1 -9 9 -9 8 0 12 4 9 9 -3 4 -7 8 -9 8 -2 0 -6
-4 -9 -8z"/>
<path d="M6793 15720 c2 -8 -2 -22 -10 -32 -12 -13 -12 -17 -1 -24 7 -4 10 -3
5 1 -4 5 -1 16 7 24 11 12 12 21 5 31 -9 13 -10 13 -6 0z"/>
<path d="M6753 15693 c0 -9 4 -10 14 -2 7 6 13 12 13 14 0 1 -6 2 -13 2 -8 0
-14 -6 -14 -14z"/>
<path d="M6747 15655 c-4 -8 -3 -16 1 -19 4 -3 9 4 9 15 2 23 -3 25 -10 4z"/>
<path d="M6651 15404 c0 -11 3 -14 6 -6 3 7 2 16 -1 19 -3 4 -6 -2 -5 -13z"/>
<path d="M6630 15381 c0 -6 4 -13 10 -16 6 -3 7 1 4 9 -7 18 -14 21 -14 7z"/>
<path d="M6485 15141 c-3 -5 -2 -12 3 -15 5 -3 9 1 9 9 0 17 -3 19 -12 6z"/>
<path d="M6460 15051 c0 -6 4 -12 8 -15 5 -3 9 1 9 9 0 8 -4 15 -9 15 -4 0 -8
-4 -8 -9z"/>
<path d="M6297 14813 c5 -12 3 -14 -8 -8 -8 4 -11 4 -6 0 4 -5 -2 -18 -13 -30
-19 -20 -19 -23 -5 -29 9 -3 13 -10 10 -16 -3 -5 -1 -10 4 -10 6 0 11 8 12 18
1 9 2 26 3 37 0 11 6 19 12 18 15 -3 13 25 -2 31 -9 3 -11 -1 -7 -11z m-12
-53 c3 -5 1 -10 -4 -10 -6 0 -11 5 -11 10 0 6 2 10 4 10 3 0 8 -4 11 -10z"/>
<path d="M6135 14601 c6 -19 4 -23 -8 -18 -12 4 -14 2 -10 -11 6 -15 5 -16
-12 -2 -18 15 -18 14 -1 -12 13 -20 15 -28 5 -28 -22 0 -2 -11 25 -14 14 -2
26 0 26 4 0 13 -27 30 -35 22 -4 -4 -6 0 -3 8 6 19 27 20 52 4 13 -9 25 -10
38 -3 18 10 18 11 -2 40 -23 32 -37 37 -37 14 0 -8 4 -12 8 -9 4 2 10 1 13 -4
2 -4 -6 -8 -20 -8 -19 0 -23 4 -19 21 3 11 2 14 -1 6 -5 -11 -8 -11 -16 0 -6
10 -7 6 -3 -10z"/>
<path d="M6060 14536 c0 -2 8 -10 18 -17 15 -13 16 -12 3 4 -13 16 -21 21 -21
13z"/>
<path d="M6195 14530 c-3 -5 -2 -10 4 -10 5 0 13 5 16 10 3 6 2 10 -4 10 -5 0
-13 -4 -16 -10z"/>
<path d="M6084 14489 c-19 -22 -19 -22 4 -8 12 8 22 17 22 21 0 12 -6 9 -26
-13z"/>
<path d="M6039 14487 c6 -8 7 -18 3 -22 -4 -5 -1 -5 6 -1 10 6 10 11 1 22 -6
8 -14 14 -16 14 -3 0 0 -6 6 -13z"/>
<path d="M6063 14443 c0 -9 4 -10 14 -2 7 6 13 12 13 14 0 1 -6 2 -13 2 -8 0
-14 -6 -14 -14z"/>
<path d="M5999 14403 c-13 -16 -12 -17 4 -4 16 13 21 21 13 21 -2 0 -10 -8
-17 -17z"/>
<path d="M6093 14385 c0 -8 4 -12 9 -9 5 3 6 10 3 15 -9 13 -12 11 -12 -6z"/>
<path d="M6166 14384 c-3 -8 -10 -13 -14 -10 -5 3 -9 -1 -9 -9 0 -10 4 -12 12
-5 7 5 14 8 16 5 3 -2 5 5 6 15 2 24 -3 26 -11 4z"/>
<path d="M6115 14371 c-3 -5 -2 -12 3 -15 5 -3 9 1 9 9 0 17 -3 19 -12 6z"/>
<path d="M6045 14361 c-3 -5 -2 -12 3 -15 5 -3 9 1 9 9 0 17 -3 19 -12 6z"/>
<path d="M6074 14335 c0 -28 8 -24 13 5 2 11 -1 20 -5 20 -4 0 -8 -11 -8 -25z"/>
<path d="M6104 14336 c1 -8 5 -18 8 -22 4 -3 5 1 4 10 -1 8 -5 18 -8 22 -4 3
-5 -1 -4 -10z"/>
<path d="M6155 14339 c-10 -15 3 -25 16 -12 7 7 7 13 1 17 -6 3 -14 1 -17 -5z"/>
<path d="M6045 14321 c-3 -5 0 -13 6 -16 7 -5 3 -15 -11 -30 -14 -15 -18 -25
-11 -30 7 -4 10 -1 9 7 -2 7 3 12 10 10 8 -1 11 2 8 7 -4 5 -2 13 4 16 8 5 8
11 1 19 -6 7 -8 16 -4 19 3 4 4 7 0 7 -3 0 -8 -4 -12 -9z"/>
<path d="M6137 14299 c6 -22 23 -26 23 -5 0 8 -6 16 -14 19 -10 4 -12 0 -9
-14z"/>
<path d="M6086 14302 c-3 -5 0 -15 8 -21 14 -12 10 -55 -4 -46 -5 3 -7 -2 -6
-11 1 -8 8 -19 15 -23 9 -6 6 -10 -9 -14 -12 -3 -19 -10 -16 -16 3 -5 -2 -12
-11 -14 -17 -4 -17 -5 0 -6 11 -1 16 -6 11 -13 -4 -7 2 -5 12 5 15 14 16 19 6
26 -10 6 -8 10 8 14 12 3 19 10 16 15 -3 5 4 22 15 36 23 29 21 36 -8 40 -10
2 -18 8 -18 14 0 16 -12 25 -19 14z m37 -67 c-25 -34 -34 -31 -16 5 8 17 19
28 24 25 5 -4 1 -17 -8 -30z"/>
<path d="M6073 14265 c0 -8 4 -12 9 -9 5 3 6 10 3 15 -9 13 -12 11 -12 -6z"/>
<path d="M6052 14120 c0 -14 2 -19 5 -12 2 6 2 18 0 25 -3 6 -5 1 -5 -13z"/>
<path d="M5985 14062 c5 -16 1 -31 -12 -45 -14 -16 -14 -19 -1 -9 11 9 18 10
23 2 8 -13 25 -3 24 13 0 9 -2 8 -6 -1 -2 -6 -9 -10 -13 -7 -5 3 -7 12 -4 20
3 7 1 22 -6 32 -10 16 -10 15 -5 -5z"/>
<path d="M6027 14059 c4 -13 8 -18 11 -10 2 7 -1 18 -6 23 -8 8 -9 4 -5 -13z"/>
<path d="M5794 13756 c1 -8 5 -18 8 -22 4 -3 5 1 4 10 -1 8 -5 18 -8 22 -4 3
-5 -1 -4 -10z"/>
<path d="M5779 13729 c11 -13 2 -51 -10 -43 -5 3 -6 10 -3 16 4 7 2 8 -5 4 -8
-5 -9 -12 -2 -19 6 -8 4 -23 -5 -42 l-14 -30 6 32 c3 17 2 33 -3 36 -4 3 -8
-15 -9 -39 0 -24 3 -41 8 -38 4 3 8 0 8 -7 0 -7 6 -4 14 7 8 10 13 30 10 44
-5 20 -3 22 5 10 10 -13 11 -13 11 0 0 9 3 11 8 5 11 -16 32 -16 26 0 -3 8
-11 13 -17 12 -7 -1 -12 8 -12 20 0 13 -6 27 -13 33 -8 7 -9 7 -3 -1z m-18
-112 c-10 -9 -11 -8 -5 6 3 10 9 15 12 12 3 -3 0 -11 -7 -18z"/>
</g>
</svg>
