<svg width="150" height="150" viewBox="0 0 150 150" fill="none" xmlns="http://www.w3.org/2000/svg">
<path d="M100.608 34.2453C114.543 42.7929 124.414 51.6134 126.658 62.5899C129.24 73.4445 124.192 86.4594 116.096 100.608C107.548 114.543 98.7277 124.414 87.7511 126.659C76.8965 129.24 63.8816 124.192 49.7332 116.096C35.7972 107.545 25.9229 98.7253 23.6816 87.7479C21.1003 76.8933 26.1478 63.8785 34.2443 49.73C42.7928 35.7982 51.6124 25.9239 62.5898 23.6826C73.4444 21.1013 86.4593 26.1488 100.608 34.2453Z" fill="url(#paint0_radial_115_82)"/>
<path d="M117.492 52.279C125.287 66.649 129.425 79.2233 125.881 89.8515C122.689 100.543 111.81 109.29 97.7242 117.495C83.3541 125.289 70.7799 129.427 60.1516 125.883C49.4606 122.691 40.7131 111.812 32.5084 97.7264C24.715 83.3531 20.5734 70.778 24.1211 60.1506C27.3129 49.4596 38.1916 40.7121 52.2776 32.5074C66.6468 24.7164 79.2219 20.5748 89.8493 24.1225C100.54 27.3143 109.288 38.193 117.492 52.279Z" stroke="url(#paint1_radial_115_82)" stroke-width="1.35" stroke-miterlimit="10"/>
<path d="M76.567 26.839C92.909 27.274 105.868 29.9772 113.3 38.3609C120.963 46.4706 123.099 60.2655 123.161 76.5667C122.726 92.9087 120.023 105.867 111.64 113.3C103.53 120.962 89.7348 123.098 73.4337 123.161C57.0892 122.724 44.1281 120.023 36.6984 111.637C29.0356 103.527 26.8994 89.7321 26.8369 73.4309C27.2743 57.0913 29.9751 44.1302 38.3612 36.7005C46.4709 29.0377 60.2659 26.9015 76.567 26.839Z" stroke="url(#paint2_radial_115_82)" stroke-width="1.35" stroke-miterlimit="10"/>
<path d="M54.9365 59.6157C55.0895 62.7734 57.142 65.6243 60.0862 66.7562C61.6216 67.3486 63.1835 67.2904 64.7927 67.2851C66.5445 67.2745 68.3015 67.2692 70.0533 67.2587C70.3435 67.2587 70.6337 67.2587 70.9239 67.2587C71.0241 67.2587 71.2299 67.301 71.3249 67.2587C71.4093 67.2216 71.499 67.0312 71.557 66.9519C71.7839 66.6345 72.0108 66.3225 72.2377 66.0051C72.702 65.3651 73.1663 64.7198 73.6307 64.0798C74.3746 63.0484 74.1319 62.1862 74.3535 60.9274C74.4221 60.536 74.4221 59.8061 74.4327 59.4094C74.4643 59.6791 74.2111 62.1069 74.2111 62.3819C74.2216 63.1542 74.3113 62.0858 74.3219 62.858C74.3535 65.3968 74.4854 67.6712 74.5171 70.2101C74.554 73.2673 74.4801 76.3245 74.5171 79.3817C74.5487 82.0422 74.4854 84.7027 74.5171 87.3579C74.5329 88.6432 71.6995 89.9443 71.7628 91.2296C71.7628 91.2455 76.654 91.4835 75.6621 91.4835C75.7043 90.0343 76.1158 88.4052 76.8914 87.1833C77.1764 86.7338 77.4982 86.3106 77.8095 85.8822C78.4532 84.983 79.1128 84.0785 79.7512 83.1794C80.6746 81.8729 81.6191 80.5823 82.5477 79.2865C84.3786 76.737 86.2095 74.1929 88.0404 71.6435C89.5969 69.4749 91.1587 67.3063 92.7153 65.1377C93.016 64.7198 93.3168 64.302 93.6175 63.8841C94.9683 61.9905 95.4642 59.5892 94.9366 57.3148C94.3773 54.9082 92.7047 52.856 90.4675 51.8193C89.2751 51.2692 88.0193 51.0735 86.7266 51.0735C84.6424 51.0788 82.5635 51.0894 80.4794 51.0946C77.2608 51.1052 74.0475 51.1158 70.8289 51.1264C68.4704 51.1317 66.1118 51.1422 63.748 51.1475C62.9882 51.1475 62.239 51.1475 61.4897 51.2903C58.9571 51.7611 56.7568 53.4854 55.6699 55.8338C55.1264 57.008 54.8732 58.3198 54.9365 59.6157Z" fill="url(#paint3_linear_115_82)"/>
<path d="M96.0949 91.0697C95.9419 87.912 93.8894 85.0611 90.9452 83.9292C89.6578 83.432 88.3492 83.395 87.0143 83.395H79.5852L79.5588 83.432L77.7965 85.8862C77.5802 86.1613 77.3902 86.431 77.2161 86.6955C77.2003 86.7114 77.1844 86.7325 77.1686 86.7484C77.1475 86.7801 77.1211 86.8224 77.0947 86.8753C75.7915 88.9276 75.6385 90.5778 75.6385 91.2072L74.4196 59.4346C74.388 61.0425 73.8814 62.6399 72.9106 63.9939L70.4993 67.2627H70.494C70.436 67.3473 70.3727 67.432 70.3093 67.5166C69.386 68.823 68.4415 70.1136 67.5129 71.4095C65.682 73.9589 63.8511 76.5031 62.0202 79.0525C60.4636 81.2211 58.9018 83.3897 57.3453 85.5583C57.0446 85.9761 56.7438 86.394 56.4431 86.8119C55.0923 88.7054 54.5963 91.1067 55.124 93.3811C55.6833 95.7878 57.3559 97.84 59.593 98.8767C60.7802 99.4268 62.036 99.6225 63.3287 99.6172C65.4129 99.6119 67.4918 99.6013 69.5759 99.596C72.7945 99.5854 76.0078 99.5749 79.2264 99.5643C81.5849 99.559 83.9435 99.5484 86.3073 99.5431C87.0671 99.5431 88.7872 99.5431 89.5364 99.4003C92.0743 98.9243 94.2746 97.2053 95.3615 94.8568C95.905 93.6773 96.1582 92.3709 96.0949 91.075V91.0697Z" fill="#FF00A6"/>
<path style="mix-blend-mode:multiply" d="M77.2004 86.7114C75.4328 89.1815 75.1901 92.4344 76.5725 95.1425C77.9549 97.8506 80.7302 99.5485 83.7536 99.5379L88.6606 99.5062C92.7815 99.1412 96.0106 95.6609 96 91.4242C96 91.1756 95.9895 90.927 95.9631 90.6784C95.5779 86.558 92.1219 83.3369 87.9272 83.3474L79.5906 83.3845L77.2004 86.7061V86.7114Z" fill="url(#paint4_linear_115_82)"/>
<path style="mix-blend-mode:multiply" d="M77.1996 86.7125C75.432 89.1826 75.1893 92.4355 76.5717 95.1436C77.9541 97.8517 80.7295 99.5496 83.7528 99.539L86.7868 99.5179C74.0602 95.2494 79.5898 83.3909 79.5898 83.3909L77.1996 86.7125Z" fill="url(#paint5_linear_115_82)"/>
<path style="mix-blend-mode:multiply" d="M83.7534 99.5385L85.0461 99.5279C84.8878 99.475 84.7295 99.4221 84.5713 99.3745C71.7391 95.2171 78.6301 84.7549 79.506 83.512L77.2055 86.712C75.4379 89.1821 75.1952 92.435 76.5776 95.1431C77.96 97.8512 80.7353 99.549 83.7587 99.5385H83.7534Z" fill="url(#paint6_linear_115_82)"/>
<path style="mix-blend-mode:multiply" d="M58.0995 58.7049C57.8146 63.1532 61.1598 66.9932 65.5761 67.2789L70.4989 67.2524L72.9102 63.9836C74.6145 61.6035 74.8994 58.4722 73.6542 55.817C72.4142 53.1671 69.8394 51.4005 66.9321 51.21L66.0721 51.1519C61.8932 51.1624 58.3791 54.4365 58.1048 58.7049H58.0995Z" fill="url(#paint7_linear_115_82)"/>
<path style="mix-blend-mode:multiply" d="M70.5047 67.2579L72.9159 63.9892C74.6202 61.609 74.9051 58.4777 73.6599 55.8225C72.4147 53.1673 69.8398 51.4007 66.9326 51.2103L66.0725 51.1521C64.9223 51.1521 63.8301 51.406 62.8328 51.8556C76.4247 57.6103 71.4438 65.8774 70.5047 67.2527V67.2579Z" fill="url(#paint8_linear_115_82)"/>
<path style="mix-blend-mode:multiply" d="M72.9055 63.9001C74.615 61.5199 74.9052 58.3886 73.6547 55.7387C72.4042 53.0782 69.8135 51.3169 66.8904 51.1265C76.6781 55.8709 72.9635 63.5457 71.1115 66.3966L72.9055 63.9001Z" fill="url(#paint9_linear_115_82)"/>
<path style="mix-blend-mode:multiply" opacity="0.6" d="M74.429 59.4041L75.7059 92.0336C75.7059 92.0336 75.5159 89.8174 76.3918 88.1565C77.2677 86.4957 80.4388 82.1955 80.4388 82.1955L74.4343 59.4041H74.429Z" fill="url(#paint10_linear_115_82)"/>
<path style="mix-blend-mode:multiply" d="M75.5703 87.5103L77.359 81.0785L74.42 59.4189L75.4859 87.7853L75.5703 87.5103Z" fill="url(#paint11_linear_115_82)"/>
<defs>
<radialGradient id="paint0_radial_115_82" cx="0" cy="0" r="1" gradientUnits="userSpaceOnUse" gradientTransform="translate(75.1702 75.1704) rotate(75) scale(53.033 53.033)">
<stop stop-color="white"/>
<stop offset="1" stop-color="#F3F3F3"/>
</radialGradient>
<radialGradient id="paint1_radial_115_82" cx="0" cy="0" r="1" gradientUnits="userSpaceOnUse" gradientTransform="translate(132.084 61.5584) rotate(171.997) scale(106.801 102.728)">
<stop offset="0.0510431" stop-color="#69CBF0"/>
<stop offset="0.695859" stop-color="#EB15C2"/>
<stop offset="1" stop-color="#FFD64B"/>
</radialGradient>
<radialGradient id="paint2_radial_115_82" cx="0" cy="0" r="1" gradientUnits="userSpaceOnUse" gradientTransform="translate(26.2886 80.0855) rotate(3.08773) scale(63.9259 72.3758)">
<stop stop-color="#63AAE8"/>
<stop offset="1" stop-color="#5C18CA"/>
</radialGradient>
<linearGradient id="paint3_linear_115_82" x1="59.0626" y1="49.5766" x2="81.8369" y2="71.8047" gradientUnits="userSpaceOnUse">
<stop stop-color="#29D7FF"/>
<stop offset="0.14" stop-color="#3CBFFF"/>
<stop offset="0.42" stop-color="#7083FF"/>
<stop offset="0.83" stop-color="#C123FF"/>
<stop offset="0.98" stop-color="#E000FF"/>
</linearGradient>
<linearGradient id="paint4_linear_115_82" x1="70.8687" y1="92.5195" x2="95.7359" y2="90.5603" gradientUnits="userSpaceOnUse">
<stop stop-color="#643C81"/>
<stop offset="0.43" stop-color="#AB95BB"/>
<stop offset="0.82" stop-color="#E7E1EB"/>
<stop offset="1" stop-color="white"/>
</linearGradient>
<linearGradient id="paint5_linear_115_82" x1="72.2979" y1="71.289" x2="84.396" y2="104.846" gradientUnits="userSpaceOnUse">
<stop stop-color="#942162"/>
<stop offset="0.49" stop-color="#CC95B4"/>
<stop offset="0.84" stop-color="#F0E1EA"/>
<stop offset="1" stop-color="white"/>
</linearGradient>
<linearGradient id="paint6_linear_115_82" x1="71.6178" y1="71.5318" x2="83.716" y2="105.095" gradientUnits="userSpaceOnUse">
<stop stop-color="#942162"/>
<stop offset="0.49" stop-color="#CC95B4"/>
<stop offset="0.84" stop-color="#F0E1EA"/>
<stop offset="1" stop-color="white"/>
</linearGradient>
<linearGradient id="paint7_linear_115_82" x1="81.5914" y1="63.3915" x2="58.4672" y2="57.1606" gradientUnits="userSpaceOnUse">
<stop stop-color="#513CFF"/>
<stop offset="0.43" stop-color="#A195FF"/>
<stop offset="0.82" stop-color="#E4E1FF"/>
<stop offset="1" stop-color="white"/>
</linearGradient>
<linearGradient id="paint8_linear_115_82" x1="88.9772" y1="84.3952" x2="62.7764" y2="48.9283" gradientUnits="userSpaceOnUse">
<stop stop-color="#513CFF"/>
<stop offset="0.43" stop-color="#A195FF"/>
<stop offset="0.82" stop-color="#E4E1FF"/>
<stop offset="1" stop-color="white"/>
</linearGradient>
<linearGradient id="paint9_linear_115_82" x1="89.5102" y1="84.2426" x2="63.1241" y2="48.517" gradientUnits="userSpaceOnUse">
<stop stop-color="#513CFF"/>
<stop offset="0.43" stop-color="#A195FF"/>
<stop offset="0.82" stop-color="#E4E1FF"/>
<stop offset="1" stop-color="white"/>
</linearGradient>
<linearGradient id="paint10_linear_115_82" x1="78.133" y1="86.3688" x2="72.854" y2="68.1488" gradientUnits="userSpaceOnUse">
<stop stop-color="white"/>
<stop offset="0.16" stop-color="#EBE1F4"/>
<stop offset="0.51" stop-color="#B995D9"/>
<stop offset="1" stop-color="#6C21B0"/>
</linearGradient>
<linearGradient id="paint11_linear_115_82" x1="77.7" y1="82.809" x2="72.9717" y2="67.0601" gradientUnits="userSpaceOnUse">
<stop offset="0.16" stop-color="white"/>
<stop offset="0.29" stop-color="#EBE1F4"/>
<stop offset="0.59" stop-color="#B995D9"/>
<stop offset="1" stop-color="#6C21B0"/>
</linearGradient>
</defs>
</svg>
